<?xml version="1.0" encoding="UTF-8"?>
<svg width="100" height="100" version="1.1" viewBox="0 0 26.458 26.458" xmlns="http://www.w3.org/2000/svg" xmlns:cc="http://creativecommons.org/ns#" xmlns:dc="http://purl.org/dc/elements/1.1/" xmlns:rdf="http://www.w3.org/1999/02/22-rdf-syntax-ns#">
 <metadata>
  <rdf:RDF>
   <cc:Work rdf:about="">
    <dc:format>image/svg+xml</dc:format>
    <dc:type rdf:resource="http://purl.org/dc/dcmitype/StillImage"/>
    <dc:title/>
   </cc:Work>
  </rdf:RDF>
 </metadata>
 <g>
  <path d="m12.815 9.2073 0.81683 0.87402 1.8607 2.4764 1.8624 2.7677-0.04495-0.12234-0.04495-0.1222-0.03799-0.27839-0.03798-0.27825 0.1249 0.47343 0.12476 0.47342 1.552 3.0773 0.04211-0.30044 0.04197-0.30044 0.01152-0.54726 0.01152-0.5474-0.47997-1.1984-0.47997-1.1982 0.0431-0.0431 0.42605 0.9295 0.42591 0.92964 0.05064 0.06117 0.05064 0.06131 0.04737-1.1538 0.04737-1.1537 0.05961-0.72835 0.0596-0.72835 0.01977 0.8376 0.01991 0.8376-0.01736 1.3233-0.0175 1.3231 0.472 1.1897 0.472 1.1895 0.10029 0.28323 0.10029 0.28309 0.0505-0.28309 0.05036-0.28323 0.0058-2.3307-0.10214-0.69193-0.102-0.69193-0.05264-0.25492-0.05278-0.25492 0.05107 0.04652 0.05093 0.04666 0.13557 0.75452 0.13558 0.75466 0.08791 1.2891 0.08791 1.2891-0.0367 0.67742-0.03684 0.67742 0.1855 0.65551 0.1855 0.65551 0.15861 0.72835 0.15862 0.72835 0.15136-0.61909 0.1515-0.6191 0.0027 0.14567 0.0029 0.14567-0.25406 1.2877 0.08791 0.70359 0.08777 0.7036 0.01109 0.03642 0.01124 0.03642 0.09603-0.29134 0.09602-0.29134 5e-3 0.14567 0.0051 0.14567-0.10086 0.42193-0.10085 0.42193 0.03528 0.34283 0.03527 0.34284-0.07155 0.87402-0.07142 0.87402 0.02405 0.0239 0.0239 0.02404 0.08607-0.42449 0.08592-0.42463 0.33031-1.0176 0.33017-1.0176 0.0046-0.47271 0.0044-0.47271 0.06288 0.21566 0.06302 0.21566-0.04026 0.48552-0.04012 0.48552-0.1781 0.82551-0.17796 0.82551-0.07838 0.90801-0.07838 0.90787-0.07426 0.27569-0.07426 0.27555h-0.13643l-0.22988 0.2525-0.22974 0.25264-0.3151 0.12035-0.31524 0.12035-0.2397-0.04012-0.23984-0.03998-0.6777 0.2249-0.67756 0.22476-0.34212-0.06601-0.34198-0.06615-0.36688 0.19005-0.36673 0.18991-0.22818-0.03343-0.22818-0.03357-0.16473 0.18948h1.43e-4l-0.16473 0.18948h-0.32007l-0.08251-0.09929-0.08237-0.09929-0.83632-0.09588-0.32776-0.10214-0.32776-0.10214-0.34397 0.02532-0.13884-0.25492-0.13898-0.25492-0.08706 0.32776h-0.2694l-0.50927-0.44725-0.1599-0.26801-0.16004-0.26801-0.39775-0.43701-1.4914-1.9665-0.0744-0.10925-0.0744-0.10925 0.78952 0.80118 0.54313 0.65551-0.82224-1.6024 0.07184 0.07284 0.07184 0.07283 1.711 2.3671h0.05534l-0.0589-0.18208-0.5363-1.5295-0.34426-0.72835-0.34426-0.72835-0.55536-1.0197-0.55551-1.0197 0.52122 0.58268 0.72465 1.0675 0.35806 0.5952 0.35791 0.5952 2.84e-4 -0.4683-0.10982-0.32349-0.10968-0.32334-0.3397-0.60786-0.33956-0.60771-0.72465-1.0925-0.62891-0.61995-0.62877-0.62009-0.54427-0.27825-0.54412-0.27825 0.31566 0.04424 0.31552 0.04439 0.35094 0.17782 0.3508 0.17782 0.33714 0.29162 0.337 0.29177 0.27114 0.31566 0.271 0.31552 0.40913 0.50188-0.05534-0.10925-0.0552-0.10925-0.43473-0.61909-0.43487-0.61909-1.2683-1.6024-0.41695-0.58254-0.41709-0.58254-0.21196-0.43729 1.0663 1.0925 1.7167 2.185 0.66832 0.8881 0.66846 0.88796 0.0515-0.0515-0.62877-1.4786-0.62891-1.4785-0.5023-0.69477-0.50216-0.69477-0.65793-0.91043-0.65807-0.91043-9.98e-4 -0.07013-0.0011-0.06999 0.35962 0.35422 0.35962 0.35407 0.49434 0.60387 0.49448 0.60387 0.05036-0.05036-0.43459-1.045-0.43445-1.0451-0.59833-1.2242-0.14553-0.10185-0.14553-0.102v-0.14596l0.09104 0.05605 0.09104 0.05619-0.1377-0.2158-0.13756-0.21566-0.30855-0.43729-0.30841-0.43729-0.56746-0.539-0.56731-0.539 0.2461 0.1387 0.24624 0.1387 1.1836 1.1654 0.58495 0.87402 0.1286 0.25492 0.12846 0.25492 0.56219 0.58268 0.56205 0.58268 0.79834 1.0925 0.9716 1.5554 0.08535 0.18735 0.08535 0.18735h0.12233v-1.0238l-0.21082-0.41667-0.21082-0.41681-0.88938-1.5295-0.75765-0.87402 0.16032 0.1387 0.16032 0.13884v-0.11124l-0.55807-0.81143-0.55807-0.81156-0.5814-0.76476-0.58154-0.76476-0.15321-0.18636-0.15335-0.18635 0.28195 0.29561 0.28181 0.29561 0.60359 0.76818 0.60345 0.76832 0.69264 1.0161 0.69278 1.0163 0.61141 0.58268-0.25691-0.50984-0.68994-1.2382-0.6898-1.2382-0.53445-0.81085-0.53445-0.81086-0.44953-0.573-0.44967-0.573-0.29987-0.32776-0.30002-0.32776 0.35308 0.32776 0.35294 0.32776 1.1625 1.3839 0.56461 0.8376 0.56447 0.8376 0.36744 0.61909 0.36759 0.6191 0.50074 0.91043 0.50088 0.91043 0.02077-0.78923 0.02077-0.78909-0.34284-0.63119-0.34284-0.63104-0.46347-0.75922-0.46347-0.75907-0.34156-0.47912-0.34156-0.47897-0.57215-0.69193-0.57201-0.69193 0.78881 0.80588 0.78866 0.80573 0.46318 0.65096 0.46304 0.65082 0.44739 0.75922 0.44725 0.75936 0.02191-0.29418 0.02191-0.29418-0.22106-0.48281-0.22121-0.48281-0.29319-0.58325-0.29319-0.5831h0.0707l0.23984 0.47342 0.33487 0.54142 0.33473 0.54142 0.08621-0.32292 0.08621-0.32292 0.0072 0.46333 0.0071 0.46332 0.37769 0.62507 0.37754 0.62521 0.12689-0.28736 0.12675-0.28721 0.0054 0.5538 0.0054 0.5538 0.39149 0.83006 0.39149 0.83006 0.46247 1.1957 0.46247 1.1958 0.04922-0.17611 0.04922-0.17597 0.0073 0.33572 0.0073 0.33558 0.404 1.0847 0.40415 1.0846-0.02931-0.32776-0.02931-0.32776-0.38821-1.1844-0.38822-1.1843-0.05818 0.09175-0.05832 0.0919-0.0011-0.26175-0.0011-0.26175-0.24954-0.72493-0.24937-0.72507-0.39831-1.0161-0.39831-1.0163-0.82565-1.8209-0.44213-0.8376-0.44201-0.8376-0.49476-0.78013-0.49462-0.78027-0.53374-0.70658-0.53374-0.70672-0.13358-0.18834-0.13372-0.18835 0.34127 0.36417 0.34113 0.36417 0.5309 0.65551 0.53075 0.65551 1.1349 1.7446 0.99237 1.8209 0.57756 1.277 0.57756 1.2772 0.05007 0.19944 0.05007 0.19958h0.12988v0.21964l0.47342 1.1809 0.47342 1.1807v0.1865l0.10926 2.85e-4 -0.03642-1.2565-0.03642-1.2565-0.91271-2.0456-1.1073-2.0331-0.8026-1.2382-0.47954-0.61909-0.47968-0.6191-0.68596-0.82195-0.6861-0.82195 0.08934-0.08934 0.29006 0.20101 0.2902 0.20115 0.60473 0.62919 0.60473 0.62905 1.1702 1.6752 0.29518 0.47343 0.29504 0.47342 0.23814 0.45835 0.23828 0.45835 0.05079-0.05079-0.38751-1.052-0.3875-1.0521-0.30983-0.72835-0.30969-0.72835-1.1395-2.3654-0.27882-0.4023-0.04751-0.14567zm1.1682 1.8374 1.0003 2.0229 0.4003 1.0197 0.40045 1.0197 0.3417 1.0561 0.3417 1.0561 0.26744 0.80118 0.0293-2.5492 0.05562 0.40059 0.05562 0.40059 0.04481 0.809 0.04467 0.809 0.04865 0.4656 0.04851 0.4656 0.1808 0.40059 0.18095 0.40059 0.42406 1.0197 0.42392 1.0197 2e-3 -0.25492 0.0019-0.25492-0.11214-0.98327-0.1121-0.98327-0.17739-1.0632-0.17739-1.0634-0.59278-1.0853-0.59292-1.0854-1.0905-1.8291-0.67315-0.96164-0.67301-0.96179-0.04566-0.04552zm-0.86875 5.0819-0.0048 0.31652-0.0047 0.31652 0.44896 0.82366 0.07639 0.07284 0.07625 0.07283-0.07996-0.50984-0.25606-0.54626zm0.02689 1.42 0.02234 0.78326h1.43e-4l0.02234 0.78312 0.13287 0.17611 0.13272 0.17597 0.05178-0.58424 0.05164-0.58424-0.18991-0.37484-0.18991-0.37484-0.01707-1.43e-4zm4.8421 0.07312h-0.04994l0.27526 1.1048 0.27512 1.1048 0.24667 1.3958 0.05207 0.18209 0.05192 0.18194 0.04823-0.89706 0.04823-0.8972-0.2488-0.59591-0.24866-0.59591-0.22505-0.49163zm1.3999 0.03642-0.0074 0.90304-0.0073 0.90289 0.37257 1.1365 0.37257 1.1363 0.05363 0.14567 0.05377 0.14567 0.1707-0.97928-0.18052-0.71213-0.18066-0.71213-0.32363-0.98327zm-9.2146 0.07283 0.04254 0.10925 0.04239 0.10925 0.57329 1.3839 0.54996 1.5295 1.4612 1.9665 0.08606 0.09588 0.08621 0.09574-0.0495-0.31424-0.04936-0.31438-0.20442-0.40059-0.20428-0.40059-1.3454-2.4087-0.34753-0.5437-0.34739-0.5437-0.14695-0.18209zm3.8874 0.50984 0.0013 0.18209 0.0016 0.18209 0.28423 0.54626 0.28408 0.54626 0.0036-0.04353 0.0037-0.04367-0.28921-0.68467zm-1.9135 0 0.02589 0.07284 0.02589 0.07283 0.32776 0.56219 0.32776 0.56205 0.05463 0.0024 0.05463 0.0023-2.76e-4 -0.12746-2.75e-4 -0.12746-0.28053-0.43701-0.26772-0.29134zm1.8749 1.0197-0.04524 0.89535 0.30087 0.46276 0.30073 0.46276 0.46731 0.94272 0.46717 0.94272v-0.10526l-0.89308-2.3629-0.29888-0.6191zm-0.8349 0.43701-0.0024 0.18635h-1.43e-4l-0.0026 0.18636 0.10698 0.1414 0.10698 0.1414-2.75e-4 -0.14567-2.76e-4 -0.14567-0.10413-0.18209zm0.8541 0.90119-0.03244 0.03229-0.03229 0.03229 0.46845 0.93746 0.46845 0.93732 0.30784 0.72835 0.30784 0.72835 0.02831 0.0303 0.02831 0.03044v-0.10556l-0.40572-0.99733-0.40557-0.99721-0.36659-0.67842zm-0.85524 0.04566 0.04523 0.65551 0.04524 0.65551 0.10527 0.14567 0.10527 0.14567-0.03058-0.58268-0.03073-0.58268-0.11978-0.2185zm4.0345 0.26317 0.02561 0.99735 0.02547 0.99735 0.47627 1.4567 0.1323 0.50984 0.13216 0.50984 0.04808 0.05605 0.04822 0.05605-0.12405-0.89365-0.12419-0.89365-0.0872-0.47342-0.08706-0.47342-0.20755-0.8992-0.20741-0.89934-0.02532-0.02532zm0.3801 0.2104-0.01778 0.01821-0.01764 0.01807 0.2461 0.98327 0.24624 0.98327 0.35478 2.0394-0.06886-2.0394-0.37143-1.0013zm1.8089 0.1552 0.03784 3.013 0.0175 0.50131 0.0175 0.50116 0.24226-1.0474 0.24226-1.0476-0.22476-0.86363-0.22491-0.86349-0.05377-0.09673zm-5.4239 0.09958v0.14567l0.14112 0.2185v-0.14568l-0.07056-0.10924zm6.6483 0.94685-0.06246 0.43701-0.0623 0.43701 0.01749 0.2185 0.01764 0.2185 0.12646 0.87373 0.12647 0.87373 0.09957-0.24013 0.09944-0.24027-0.08934-0.85197-0.08948-0.85211-0.09176-0.43701zm-6.585 0.25492h-0.0761l0.05235 0.41852 0.05221 0.41852 0.24354 0.43729 0.2434 0.43729 8.56e-4 -0.05591 8.55e-4 -0.05605-0.25862-0.79976zm-1.6827 0.54626 0.3976 0.80118 0.39746 0.80118 0.04453 0.10925 0.04438 0.10925-0.04495-0.28864-0.0451-0.28878-0.32804-0.54882-0.32804-0.54896-0.06885-0.07283zm1.1176 0.36417-4e-3 0.14567-4e-3 0.14567 0.07056 0.10925 0.0707 0.10925-0.0041-0.10925-4e-3 -0.10925-0.06259-0.14567zm-1.3264 1.2018h-0.07284l0.07795 0.14567 0.07796 0.14567h0.07284l-0.07796-0.14567zm0.36417 0.58268h-0.07284l0.15592 0.29134h0.07284l-0.07795-0.14567zm0.22064 0.36417h-0.07284l0.29731 0.58268h0.07284l-0.14866-0.29134zm1.3006 0.28038-0.02959 0.02973-0.02973 0.02973 0.19204 0.8679 0.19204 0.86804 0.26488 0.50984 0.0031-0.04922 0.0033-0.04936-0.25706-0.97032-0.2572-0.97046-0.04083-0.13287zm6.9953 0.19304-0.0734 0.18209-0.0734 0.18209-0.08308 1.6388h0.08394l0.03855-0.38238 0.03869-0.38238 0.03428-0.6191zm-0.73702 0-0.06487 0.54626-0.06501 0.54626 0.01977 0.2185 0.01977 0.2185 0.10926-0.26687-0.0095-0.63133zm-7.2098 0.17583-0.04068 0.04083-0.04083 0.04068 0.09048 0.08991 0.09062 0.08976-0.04979-0.13059zm3.5754 0.04268-0.03826 0.0956-0.03827 0.09559 0.0441 0.04396 0.04396 0.0441-0.0058-0.13969zm0.0138 0.29134 0.0122 0.29134 0.11664 0.36417 0.0122-0.43701-0.07056-0.10925zm-3.2776 0.36417v0.14567l0.14112 0.2185v-0.14566l-0.07056-0.10925zm-0.16459 0.53858-0.0697 0.0697 0.11395 0.3922 0.11409 0.39206 0.18636 0.39632 0.18635 0.39618-0.04011-0.20044-0.04012-0.2003-0.22533-0.62294z" stroke-width=".072835"/>
  <path d="m6.7442 18.923 0.12588 0.19415 0.12576 0.19407 0.093718 0.18712 0.09362 0.18715 0.16017 0.56244 0.16026 0.56242 0.10913 0.29677 0.10913 0.29677 0.32319 0.27028 0.32309 0.27031 0.54694 0.58844 0.25957 0.35332 0.25947 0.35334 0.64372 1.0525 0.25386 0.47623 0.25379 0.47635 0.0186-0.0298-0.19993-0.70963-0.19992-0.70961-0.60038-0.98964-0.63095-0.81574-0.329-0.34255-0.329-0.34256-0.25773-0.22844-0.25782-0.22842 0.21501 0.12796 0.21508 0.12784 0.35581 0.31663 0.3558 0.31654 0.60383 0.69642 0.5805 0.80732-0.84848-3.5039-0.11184-0.32614-0.11183-0.32614 0.06054-0.0136 0.18142 0.41461 0.18153 0.41459 0.13609 0.33372 0.13619 0.33369 0.3758 1.6587 0.3758 1.6587 0.59756 1.0551-0.02681-0.27628-0.02661-0.27631-0.14154-1.1129-0.14154-1.1129-0.11944-0.77764-0.11943-0.77764 0.04184-0.06544 0.55921 2.5802 0.19194 0.30312 0.19186 0.30325-0.07607-0.61531-0.07604-0.61522-0.0049-0.3891-0.0049-0.3891 0.0086-0.86036 0.0087-0.86037 4.17e-4 -0.10416 5.09e-4 -0.10416 0.10579 0.44577 0.10598 0.44573 0.02886 0.72069 0.02884 0.72069 0.04833 0.66552 0.04823 0.66555 0.09048 0.39595 0.09067 0.39591 0.02977-0.4434 0.02978-0.4434 0.05019-0.27686 0.0502-0.27685 0.12485-0.35555 0.12475-0.35553 0.04476 0.02842-0.08407 0.79546-0.08397 0.79543-0.01239 0.6531-0.01231 0.65308 0.36219 1.3236 0.07621 0.20516 0.07609 0.20509 0.10106-0.9211 0.10094-0.92117 0.0325-0.76166 0.0325-0.76166 0.06136-0.45525 0.06135-0.45535 0.08874-0.28753 0.08877-0.28761 0.06815-0.08639 0.06814-0.08639-0.01545 0.1075-0.01545 0.1075-0.07301 0.79674-0.07292 0.79672-0.0447 0.84243-0.0446 0.8424-0.03866 0.71101-0.03857 0.71099 0.14498 0.61706 0.14497 0.61706-0.05957 0.1052-9.6e-5 2.1e-5 -0.05957 0.1052-0.10624 0.02379-0.10634 0.02381-0.07271-0.04611-0.07273-0.04621-0.02242-0.10015-0.02244-0.10025-0.05258 0.1274-0.05246 0.12738-0.33886 0.07588-0.09375-0.09608-0.09365-0.09608-0.11538-0.22129-0.11538-0.22129-0.0809 0.018 0.05371 0.20157 0.05354 0.2016-0.07898 0.09024-0.07908 0.09026-0.18027 0.04036-0.10121-0.0758-0.1013-0.07578-0.18135 0.1354-0.18137 0.1353-0.10661-0.02956-0.10651-0.02963-0.08874-0.1722-0.31918 0.03766-0.16242 0.20403-0.25418 0.14277-0.25416 0.14287-0.13116-0.0049-0.13114-0.0048-0.11825-0.04342-0.11834-0.04344-0.06782 0.11964-0.06772 0.11962-0.11332 0.02538-0.11322 0.02535-0.04177-0.04269-0.04167-0.04271-0.06986 0.01565-0.06976 0.01564 0.0394 0.05937 0.0395 0.05934-0.33091 0.12367-0.33081 0.12366-0.45667-0.02826-0.05355-0.05355-0.053651-0.05353-0.026194-0.11268-0.025978-0.11287-0.16072-0.2649-0.16064-0.26501-0.2514-0.33046-0.25134-0.3306-0.27075-0.3624-0.27086-0.36248-0.12129-0.19365-0.1212-0.19367-0.037414-0.16711-0.037438-0.1672 0.04267-0.0096 0.042571-0.0096 0.15271 0.18692 0.15262 0.18694 0.54826 0.80814 0.54834 0.80802 0.14787 0.18069 0.14784 0.18059 0.09566 0.06963 0.095563 0.06964 0.097538-0.0219-0.090873-0.27881-0.090874-0.2788-0.34399-0.58744-0.34402-0.58753-0.073011-0.20354-0.07304-0.20364 0.13765 0.25533 0.13755 0.25535 0.57373 0.9641 0.14609 0.27224 0.14609 0.27223 0.051961-0.08245 0.051951-0.08245-0.1746-0.57288-0.17461-0.57293-0.22444-0.24819-0.22435-0.24822-0.32984-0.31635-0.32994-0.31633-0.32156-0.26618-0.32165-0.26616-0.3324-0.24698-0.3324-0.24699 0.039448-0.0385 0.039424-0.03858 0.70046 0.31649 0.32238 0.2599 0.32248 0.25988 0.24111 0.24863 0.24113 0.24872-0.12803-0.23148-0.1777-0.24138-0.17778-0.24126 0.014942-0.02355 0.014862-0.02342 0.35483 0.48197 0.35493 0.48195 0.15133 0.24434 0.15143 0.24432 0.33502 0.38896 0.33492 0.38899 0.00573-0.05525 0.00562-0.05523-0.18835-0.33392-0.18836-0.33391-0.38878-0.56328-0.38888-0.56327-1.2614-1.5385-0.57472-0.65172 0.091343 0.05759 0.09144 0.05757 0.76146 0.76599 0.71185 0.88115 0.71175 0.88117-0.00601-0.02468-6e-3 -0.0247-0.41123-0.71576 0.052316 0.01803 0.052345 0.01815 0.30775 0.33116 0.30777 0.33125-0.083334-0.24148-0.083336-0.24148-0.096173-0.22082-0.096209-0.22091-0.68382-0.85308-0.68384-0.85318-0.31464-0.35877-0.31455-0.35879 0.018676-0.0042 0.018764-0.0042 0.39984 0.35443 0.39975 0.35446 0.47212 0.50388 0.47202 0.5039-0.023713-0.10677-0.02372-0.10677-0.22838-0.66916-0.22827-0.66923-0.10626-0.23634-0.10625-0.23634-0.47132-0.54481 0.018684-0.0042 0.018678-0.0042 0.17639 0.16973 0.17647 0.16961 0.011365-0.01793 0.011484-0.01812-0.24092-0.5169-0.24092-0.51693-0.18468-0.34245-0.1848-0.34252 0.036024-0.05684 0.13837 0.1692 0.13835 0.1691 0.43255 0.73558 0.11345 0.26075 0.11335 0.26077 0.12726 0.34057 0.12725 0.34057 0.31157 0.47164 0.31147 0.47167 0.56974 0.97759 0.56962 0.97752 0.0219-0.03468-0.3508-1.0118-0.35068-1.0117-0.16539-0.45719-0.16547-0.4572-0.14622-0.21784-0.14613-0.21786 0.065665 0.0228 0.065533 0.02276-0.12262-0.38378-0.1226-0.38368-0.324-0.29164-0.17303-0.14335-0.17313-0.14333 0.11517 0.04971 0.11516 0.04963 0.33862 0.18949-0.23262-0.93642-0.23272-0.9364-0.13132-0.19984-0.1314-0.19982 0.014036-0.02215zm1.1268 2.8976 0.05873 0.14293 0.058631 0.14295 0.17752 0.48052 0.23891 0.29281 0.23881 0.29284 0.64094 1.1181 0.64082 1.1181 0.25341 0.52053 0.25339 0.52044 0.34191 0.6258 0.01027-3e-3 0.01008-0.0031 0.05419-0.05431 0.05422-0.0542-0.5416-1.1496-0.54148-1.1496-0.2755-0.53662-0.27552-0.53662-0.27798-0.43557-0.27787-0.4355-0.18052-0.21626-0.1804-0.21618-0.24041-0.23232zm-0.44788 1.5288-0.017434 0.02748-0.017506 0.02751 0.25711 0.75717 0.25713 0.75727 0.39867 0.49126 0.39865 0.49117 0.24443 0.32247 0.24433 0.32249 0.02497-0.0055 0.02506-0.0056-0.07473-0.12634-0.07464-0.12636-0.99795-1.7016-0.33406-0.61568zm1.1785 0.15246-0.01522 0.02404-0.015249 0.02413 0.712 1.7524 0.28015 0.55418 0.28003 0.5541 0.15778 0.25265 0.15775 0.25256 0.02998 0.01895 0.03008 0.01909-0.0774-0.23678-0.07732-0.23693-0.18245-0.58347-0.18236-0.58349-0.23052-0.43959-0.23044-0.43971-0.31834-0.46606zm2.6304 0.45294 0.17653 0.94054 0.17643 0.94056 0.15009 0.24604 0.15017 0.24592-0.0089-0.30774-0.0089-0.30783-0.18076-0.57816-0.18068-0.57828-0.11426-0.28607-0.11425-0.28607-0.02286-0.01446zm-0.51368 1.0783 0.22243 0.67857 0.17691 0.4521 0.17691 0.4521 0.04312 0.0273-0.02723-0.21604-0.02712-0.21596-0.24864-0.56824-0.24862-0.56814-0.03394-0.02084zm-2.3432 0.971-0.00803 0.01275-0.00803 0.01274 0.21666 0.44574 0.21675 0.44572 0.14984 0.2526 0.14983 0.2526 0.03823 0.02507 0.03822 0.02498 0.10483-0.0696 0.10484-0.0696-0.02806-0.03324-0.02804-0.03314-0.47344-0.63324zm0.18508 2.2175 0.00104 0.0964 0.00113 0.09628 0.1176 0.07458-0.05989-0.13363z" stroke-width=".050769"/>
  <path d="m14.491 0.37544 0.8119 0.68953 0.54734 0.5702 0.54721 0.57007 0.64328 0.80793 0.64328 0.8078 1.0807 1.4885 0.19742 0.29667 0.19729 0.29666 0.11034 0.16492 0.11021 0.16505 0.05893-0.00262 0.0588-0.00281 0.04057-0.25596 0.04043-0.25583 0.0032 0.40992 0.0032 0.40991 0.2738 0.43581 0.2738 0.43581 0.41493 0.71041h0.05208l-0.058968-0.26231-0.058934-0.26231-0.17456-0.5665-0.17456-0.56651-0.24262-0.77807-0.24275-0.77807-0.1554-0.45669-0.15527-0.45669h0.05788l0.23125 0.4592 0.23139 0.4592 0.36181 0.87453 0.25636 0.84573 0.25649 0.84573 0.18725 0.8119 0.18738 0.8119 0.41996 0.84573 0.41982 0.84573 0.7231 1.7591 0.04229 0.05167 0.04242 0.05167 0.09515-0.79591 0.09514-0.79591-0.0058-0.37212-0.0058-0.37212-0.44508-1.5223-0.44493-1.5223-0.26323-0.76115-0.2631-0.76115h0.04321l0.22848 0.45669 0.22861 0.45669 0.25293 0.64275 0.25292 0.64275 0.30036 1.0458 0.30023 1.0459 0.06197 0.06197v-0.23719l0.14589-0.50228 0.14602-0.50215 0.02193 0.021945 0.02207 0.022066-0.34675 1.378 0.47744 1.8438 0.47744 1.8437 0.08722 0.29786 0.08735 0.29799 0.118-1.1775 0.118-1.1774 0.13584-0.80727 0.13598-0.80727 0.21144-0.88418 0.21143-0.88418 0.28992-1.1502 0.28979-1.1502 0.0037 0.10149 0.0036 0.10149-0.09647 0.5751-0.0966 0.57509-0.16954 0.87956-0.16954 0.87956-0.10294 0.54126-0.10294 0.54127-0.10215 0.77807-0.10202 0.77807-0.08259 1.9135-0.08272 1.9136 0.11576 0.52211 0.11576 0.52224 0.23152 1.1502 0.23139 1.1502 0.02444 0.16915 0.02445 0.16915 0.04426-3.2138 0.0444-3.2138 0.10347-0.94722 0.10347-0.94721 0.10307-0.5751 0.10307-0.57509 0.13571-0.43978 0.13584-0.43978-0.06608 0.40595-0.13386 0.77807-0.13386 0.77807-0.14008 1.8944 0.0089 0.37212 0.0089 0.37212 0.0555-0.60892 0.0555-0.60892 0.14958-1.6915 0.13188-0.74424 0.13188-0.74424 0.12236-0.40595 0.0058 0.080083 0.0058 0.080214-0.09488 0.46105-0.09501 0.46119-0.09105 0.74424-0.09118 0.74424 0.01044 4.6346 0.01044 4.6346 0.0744 0.53109 0.0744 0.53122 0.14457 0.20284 0.14443 0.20297 0.12223 0.3823 0.12223 0.3823 0.0037-1.2558 0.0036-1.2556-0.09937-0.13135-0.09924-0.13122-0.0022-0.06131-2e-3 -0.06119 0.12382 0.11206 0.12395 0.11219 0.04519-0.04532 0.04532-0.04519v0.21038l0.21989 0.46422 0.21989 0.46436 0.05141-0.77807 0.05141-0.77807 0.06356-0.2368 0.06369-0.2368-0.03423 1.3193-0.0341 1.3193 0.06303 0.20297 0.06303 0.20298 0.03488-0.10149 0.03502-0.10149 0.12012-0.47361 0.12025-0.47361 0.38718-0.94721 0.31583-0.52435 0.31569-0.52435h0.1176l-0.14391 0.20205-0.1439 0.20218-0.23892 0.51721-0.23892 0.51708-0.16148 0.63615-0.16135 0.63614-0.07387 0.58976-0.07387 0.58976 0.04836 0.47361 0.04823 0.47361 0.05048-0.16915 0.05061-0.16914 0.11616-0.58633 0.11615-0.58646 0.12699-0.20852 0.12686-0.20866h0.11855l-0.31926 1.3193-1.31e-4 0.11576-1.33e-4 0.11576 0.26535-0.28451 0.26535-0.28451 0.04506 0.04493 0.04493 0.04493-0.6787 1.0595-0.06859 0.30446-0.06859 0.30446-0.03291 0.38904-0.03277 0.38903h0.04836l0.14906-0.47215 0.14893-0.47202 0.0588 0.0362 0.05867 0.03634v0.49211l0.19135-0.30076 0.19148-0.30076 0.12408-0.10149 0.12395-0.10149-0.0629 0.13532-0.12012 0.26403-0.12012 0.26416-0.09223 0.48206-0.09223 0.4822-0.14324 0.37688v0.32045l-0.14985 0.04758-0.14985 0.04744-1.8183 0.08324-0.21619-0.16492-0.23258-0.0042 0.037 0.09633 0.03687 0.09633-0.30235 0.16174-0.51378-0.03132-0.51365-0.03133-0.40066-0.12805-0.40053-0.12805-0.05576 0.1673h-0.23231l-0.06435-0.06092-0.06422-0.06092-0.32508 0.07717-0.32494 0.07717 0.03462 0.13241 0.03462 0.13254-0.07308 0.08814-1.32e-4 -2.56e-4 -0.07308 0.08801h-0.11841l-0.27103-0.24487-0.27116-0.24486-0.20245 0.16808v0.16981l-0.10704 0.0888-0.1069 0.0888-0.13783-0.08603-0.13783-0.08616-0.06528 0.06528-0.06515 0.06528-0.21434-0.0703-0.21434-0.07017-0.20297-0.08668-0.20298-0.08669-1.0149-0.15065-0.06118-0.06105-0.06105-0.06118-0.13228 0.07083-0.13214 0.0707-0.06303-0.0629-0.06303-0.06303-0.10479-0.60298-0.10492-0.60298-0.34913-0.32058-0.34926-0.32058 0.06911-7.67e-4 0.06924-7.68e-4 0.51378 0.42366-0.04757-0.26257-0.04771-0.26257-0.19822-0.67658-0.19822-0.67658-0.1266-0.42405-0.12646-0.42419 0.06422 0.03964 0.06422 0.03978 0.12646 0.24909 0.12646 0.24909 0.11629 0.33829 0.11642 0.33829 0.25742 1.0005 0.25755 1.0005 0.11298 0.17245 0.11312 0.17258-0.03925 0.03924-0.03925 0.03925v-0.18052l-0.07426 0.07426 0.04453 0.17721 0.0444 0.17708h0.19623l-0.10044-0.16254 0.01414-0.24037 0.01427-0.24037-0.09514-0.3042-0.09514-0.3042-0.05273-0.13532-0.05286-0.13532 0.37899 0.33829-0.03951-0.16915-0.03964-0.16915-0.08194-0.74424 0.11179 0.19505 0.11166 0.19504 0.19002 0.54919 0.19016 0.5492 0.04731 0.25372 0.04744 0.25372h0.12024v-0.24936l-0.13598-0.39524-0.13598-0.39525 0.06541-0.04044 0.06528-0.04044-0.527-1.0802-0.52686-1.0804-1.253-2.0974-0.36604-0.44731-0.36591-0.44731v-0.09038l0.2109 0.15421 0.21077 0.15421 1.1856 1.3701 0.28028 0.41269 0.28015 0.41269 0.27565 0.49224 0.27552 0.49224-0.03462-0.10149-0.03462-0.10149-0.27235-0.66165-0.27235-0.66152-0.31702-0.92845-0.31688-0.92832-0.23046-0.50519-0.23046-0.50532-0.21355-0.34041-0.21341-0.34054-0.33102-0.42854-0.33102-0.42855 0.06184-0.06184 0.39762 0.43396 0.39749 0.43396 0.2931 0.51233 0.29296 0.51219 0.66456 1.5769 0.66456 1.5768 0.38784 0.89859 0.38798 0.89845 0.04228-0.0423-0.06158-0.26839-0.06158-0.26852-0.27142-1.1502-0.39564-1.1502-0.24817-0.5751-0.2483-0.57509-0.19796-0.30446h0.11299l0.16492 0.2187 0.16492 0.21857 0.15012 0.23812 0.15012 0.23799 0.0022-0.03634 2e-3 -0.03634-0.33102-0.97853-0.33089-0.97853-0.64117-1.6915-0.22795-0.49541-0.22808-0.49554v-0.05907l-0.75005-1.5094-1.3944-2.0414-0.11946-0.2368-0.11959-0.2368 0.06369 0.06766 0.06356 0.06766 0.50043 0.64275 0.5003 0.64275 0.49224 0.72812 0.49211 0.72799 0.333 0.6635 0.33287 0.66337 0.5447 1.2876 0.54457 1.2878 0.07189 0.18883 0.07175 0.1887 0.05642-0.05642-0.20324-0.74226-0.20324-0.74239-0.1895-0.69587-0.93796-2.8224-0.34569-0.86383-0.34569-0.86383-0.37899-0.75547-0.37886-0.75547-0.26773-0.42392-0.26772-0.42392-0.55422-0.21447-0.55435-0.21434-0.54126-0.03396-0.54126-0.034096-0.25372 0.070431-0.25372 0.07043v-0.13135l0.50744-0.21249 1.1502 0.076114 0.91074 0.34305-0.34798-0.48885-0.3482-0.48894-0.54312-0.67658-0.54325-0.67658-0.61276-0.71054-0.61276-0.71068-0.10149-0.13241-0.10149-0.13254 0.2368 0.16056 0.2368 0.16056 0.71041 0.71728 0.71041 0.71741 0.53677 0.70354 0.53677 0.70367 0.77226 1.1317 0.59941 0.37569 0.59941 0.37569 0.37212 0.27935 0.37212 0.27935 0.64275 0.59914v-0.13718l-0.72942-2.0125-0.14694-0.36855-0.14708-0.36869-0.87453-1.2543-0.5965-0.72944-0.5965-0.72957-0.77609-0.74503-0.77595-0.74516-1.2353-0.84599-0.6298-0.30314-0.6298-0.30301-0.54127-0.13809-0.54126-0.13796-0.74424-0.00477-0.74424-0.00459 0.20297-0.063297 0.20297-0.063428 1.4208-6e-3 0.60892 0.17945 0.60892 0.17932 0.5932 0.31266 0.5932 0.31252 0.69231 0.52105 0.69231 0.52118 1.3151 1.2992 0.50955 0.6121 0.50955 0.61222v-0.094476l-0.33829-0.62742-0.33829-0.62755v-0.076507h0.11985l0.28068 0.47242 0.28068 0.47242 0.41784 0.79617 0.41797 0.79617 1.1555 1.7818 0.1731 0.2479-0.02709-0.49594-0.02722-0.49594-0.61024-0.90797-0.61011-0.90796h0.04334l1.11 1.387 0.02181 0.02524 0.0218 0.025109-0.038588-1.0738-0.038721-1.0739-0.29045-0.88497-0.29059-0.88497-0.32376-0.50202-0.32389-0.50202-1.2794-1.8268-0.88828-1.1502-0.71266-0.74173zm4.5678 5.9492 0.0076 0.13532 0.15937 0.33829 0.15924 0.33829 0.0036-0.13531 0.0036-0.13532-0.16677-0.27063zm0.55818 0.97417-0.03356 0.12792-0.03343 0.12792 0.22914 0.73168 0.22901 0.73169 0.37199 1.4611 0.37212 1.4613 0.22148 0.50876 0.03925-0.03925-0.20245-0.80106-0.20258-0.80119 0.0497-0.04966 0.16029 0.52356 0.16029 0.52356 0.12422 0.37212 0.12422 0.37212-0.03647-0.50744-0.03647-0.50744-0.10825-0.87955-0.10823-0.87955-0.53545-1.0332-0.53545-1.0331-0.12474-0.20509zm-0.0054 1.485 0.03661 0.69865 0.03661 0.69865 0.2376 0.38904 0.23746 0.38903h0.04849l-5.12e-4 -0.10148-0.26456-1.0034-0.26469-1.0035-0.03343-0.033563zm0.99201 1.6679 0.0052 0.12976 0.0054 0.12963-0.04097-0.04084-0.04084-0.04096 0.03555-0.0888zm-0.87665 0.27063 0.04545 0.50744 0.04546 0.50744 0.49977 0.8752 0.49964 0.87506v-0.09871l-0.33829-1.3672-0.60549-1.0963-0.07334-0.10149zm1.7031 0.13532 1.33e-4 0.06766 1.32e-4 0.06766 0.13636 1.0149 0.09237 0.98699 0.0925 0.98699 0.75719 1.7612v0.07361h-1.32e-4v0.0736l0.06766 0.04176 0.06766 0.04189v-2.0475l-0.34239-0.90836-0.34252-0.90823-0.26442-0.6261zm-4.7061 0.0035 0.10889 0.16743 0.10889 0.16743 0.43819 0.74424 0.43806 0.74424 0.21976 0.39009 0.21962 0.39009 1.614 3.2116-0.03039-0.16914-0.03053-0.16914-0.04189-0.87625-0.04189-0.87625-0.19465-0.69323-0.19465-0.6931-0.0674-0.12593-0.0674-0.12594-0.7001-0.67275-0.7001-0.67262-0.53928-0.3704zm6.3452 0.20178-0.04149 0.43872-0.04136 0.43859-0.04294 0.58117-0.04294 0.58117 0.84044 2.5589 0.20416 0.59201 0.20403 0.59201h0.05113v-1.0663l-1.0223-4.4221-0.05444-0.14708zm-3.879 0.28306-0.02987 0.02973-0.02973 0.02986 0.1702 0.43647 0.1702 0.43648 0.0596 0.13531 0.05973 0.13532 9e-3 -0.33829-0.20456-0.43238zm0.70367 1.3692 0.04175 0.32481 0.04162 0.32481 0.36446 0.45484 0.36459 0.45484h0.05074l-0.77173-1.4546-0.04572-0.05232zm1.2638 0.71358 0.0074 0.13532 0.05815 0.13532 0.05815 0.13531 0.0037-0.10149 0.0037-0.10149-0.06554-0.10149zm-3.0672 0.57298-0.02154 0.02168-0.02167 0.02153 0.19069 0.47004 0.19068 0.46991 0.35745 0.98104 0.35745 0.98104 0.19558 0.57509 0.19544 0.57509 0.46568 1.4208 0.13307 0.40595 0.13307 0.40595 0.0048-0.10149 0.0049-0.10149-0.12844-0.77807-0.12831-0.77807-1.1446-2.8416-0.39207-0.8637zm2.0394 0.17126 0.03806 0.13532 0.03806 0.13532 0.17311 0.57509 0.17311 0.5751 0.29521 1.184h-2.55e-4l0.29534 1.184 0.06118 0.27063 0.06131 0.27063 0.04625-0.57509 0.04625-0.57509 5.37e-4 -0.63337 5.38e-4 -0.63337-0.33565-0.55065-0.33565-0.55065-0.27869-0.40595zm2.751 0.64936 0.01797 0.65636 0.01797 0.65636 0.02299 0.40595 0.02299 0.40595 0.37912 1.0825 0.37926 1.0825 0.0026-0.67817 0.0028-0.67804-0.1698-0.67513-0.16981-0.675-0.21236-0.74424-0.21249-0.74424-0.04057-0.04744zm-2.4925 2.4295-0.02563 0.02576-0.02576 0.02563 0.07929 0.46462 0.07929 0.46462 0.05735 0.10148 0.05735 0.10149 2e-3 -0.06607 0.0022-0.06608-0.11298-0.5258zm3.4787 1.4543 0.0403 0.47361 0.0403 0.47361 0.06277 0.10149 0.06277 0.10149-0.0411-0.46819-0.04097-0.46806-0.06211-0.10704zm-1.9181 0.27063-0.02933 0.15302h-2.55e-4l-0.02934 0.15302 0.06158 0.23522-0.0013-0.27063zm-0.08299 0.74424-0.02035 0.38904-0.02021 0.38917 0.24592 0.76102h1.32e-4l0.24592 0.76116 0.02814 0.02827 0.02801 0.02815-5.38e-4 -0.06198-5.37e-4 -0.06211-0.12831-0.74543-0.12845-0.74543-0.12488-0.37093zm5.0914 1.4488-0.01837 0.01982-0.01824 0.01982 0.11999 1.3193 0.11999 1.3193 0.01269-0.03383 0.01255-0.03382 0.05682-0.87797 0.05669-0.8781-0.171-0.42722zm-1.753 0.9192-0.0711 0.1776 0.0818 0.0818-0.0054-0.12964zm0.01916 0.27063 0.0022 0.16914h-1.32e-4l0.0022 0.16915 0.0892 0.33829 0.0892 0.33829-0.07558-0.74424-0.05352-0.13531zm-3.051 0.27063v0.13532l0.13108 0.20298v-0.13532l-0.06554-0.10149zm5.392 0.20298-0.02933 0.15303h-2.56e-4l-0.02933 0.15302 0.03079 0.11761 0.03079 0.11761-0.0013-0.27063zm-5.2019 0.13532-0.0711 0.1776 0.08181 0.08181-0.0054-0.12964zm4.124 0.77807h-0.07123l0.04612 0.34754 0.04612 0.34741 0.09884 0.21077 0.09898 0.21064-0.03304-0.11906-0.03291-0.11906-0.07651-0.43912zm-2.4895 0.06766h-0.12262l0.03542 0.13532 0.03529 0.13532h0.05194v-0.13532zm-2.3564 0.03383-0.0058 0.37609-0.0058 0.37608 0.20668 0.2627-0.04573-0.33697-0.04572-0.33697-0.0518-0.17047z" stroke-width=".067658"/>
 </g>
</svg>
