<?xml version="1.0" encoding="UTF-8"?>
<svg width="600" height="100" version="1.1" viewBox="0 0 158.75 26.458" xmlns="http://www.w3.org/2000/svg" xmlns:cc="http://creativecommons.org/ns#" xmlns:dc="http://purl.org/dc/elements/1.1/" xmlns:rdf="http://www.w3.org/1999/02/22-rdf-syntax-ns#">
 <metadata>
  <rdf:RDF>
   <cc:Work rdf:about="">
    <dc:format>image/svg+xml</dc:format>
    <dc:type rdf:resource="http://purl.org/dc/dcmitype/StillImage"/>
   </cc:Work>
  </rdf:RDF>
 </metadata>
 <rect x="2.0647e-6" y="6.8823e-7" width="158.75" height="26.458" fill="#eee"/>
 <path d="m0 0v26.458l0.24805-0.35037v-5.29e-4l0.24805-0.35035 3.9331-0.5488 3.475-1.3612 3.4742-1.3606 1.8441-0.29559 1.8441-0.29507 1.8534-0.73484 1.8534-0.73432 0.87979-0.0093 0.87979-0.0088 4.7113-1.9399 4.6222-0.58704 2.5998-1.1364 2.5991-1.1364 0.26278-0.59635 0.262-0.59686 2.6053-0.71624 2.6045-0.71675 1.9363 0.89659 1.9371 0.89607 1.9177 1.5301 1.9185 1.5301 1.4666 1.0614 2.1014-3.8706 2.1006-3.8706 0.71003-0.38241 1.2038 0.9741 1.2038 0.97358 0.2837 0.77876 0.28293 0.77928 1.486-0.02532 1.4852-0.02481 3.3362 1.9451 0.71468 1.0749 0.71391 1.0744 1.1371 0.65009 1.1379 0.65009 2.2402-0.74311 1.3689-1.9007 1.3681-1.9007 0.43641 1.0516 0.43563 1.0516 0.25735-0.01034 0.25735-0.01033 0.84491-1.5984 0.84491-1.5989 1.4929-0.61805 1.4937-0.61857 2.0014 0.26665 0.32014 0.27957 0.32014 0.27905h1.4131l1.3123 1.0966 1.3115 1.0971 0.90924-0.49196 0.90847-0.49196 0.96196-0.50384 0.96273-0.50436 1.4945 1.494 1.4953 1.494 0.89374-0.20154 0.89374-0.20102 1.5394 1.4294 1.5402 1.4299h1.1681l0.83638 0.80615 0.83638 0.80667h0.95266l1.0899-0.89297 1.0891-0.89297 0.87591 0.47749 0.87514 0.47697 1.2519-1.2976 1.2519-1.2981 1.2697-0.67386 1.2705-0.67386 0.77979-2.0485 0.7798-2.0485h0.75732l4.6385 2.7233 2.4014-0.39998 0.25115-0.35553 0.25193-0.35502h3.5882l0.51314 0.7245 1.9658-0.07286 1.9666-0.07286 2.7735 1.4345 0.72785 0.0016 0.72864 0.0021 1.0852 1.0082 1.086 1.0082h2.0836l0.69299 0.60462 0.69375 0.60513h0.82398l1.5526 1.2097 1.5534 1.2097h1.4542l1.3084-1.2097 1.3092-1.2097h0.94103l2.313 1.8149 2.3138 1.8144h1.348l1.5154 1.0082 1.5146 1.0082h0.90693l1.086 1.0082 1.0852 1.0082v-26.458z" fill="#737373" fill-opacity=".25098"/>
 <path d="m0 0v19.844h0.05271l0.2775-0.35864 0.2775-0.35812 1.4046-0.66921 1.4046-0.66973 1.479 1.0516 1.4782 1.0511 1.803-0.08165 1.803-0.08217 3.1238 1.572 0.23099 0.39584 0.77825-0.14883 0.77747-0.14883 0.43253 0.39688 1.5968-0.63304 1.8534-0.73432 0.87979-0.0093 0.87979-0.0088 4.7113-1.9399 4.6222-0.58704 2.5998-1.1364 2.5991-1.1364 0.26278-0.59635 0.262-0.59686 2.6053-0.71624 2.6045-0.71675 1.9363 0.89659 1.9371 0.89607 1.9177 1.5301 1.9185 1.5301 1.4666 1.0614 2.1014-3.8706 2.1006-3.8706 0.71003-0.38241 1.2038 0.9741 1.2038 0.97358 0.2837 0.77876 0.28293 0.77928 1.486-0.02532 1.4852-0.02481 3.3362 1.9451 0.71468 1.0749 0.71391 1.0744 1.1371 0.65009 1.1379 0.65009 2.2402-0.74311 1.3689-1.9007 1.3681-1.9007 0.43641 1.0516 0.43563 1.0516 0.25735-0.01034 0.25735-0.01033 0.84491-1.5984 0.84491-1.5989 1.4929-0.61805 1.4937-0.61857 2.0014 0.26665 0.32014 0.27957 0.32014 0.27905h1.4131l1.3123 1.0966 1.3115 1.0971 0.90924-0.49196 0.90847-0.49196 0.96196-0.50384 0.96273-0.50436 1.4945 1.494 1.4953 1.494 0.89374-0.20154 0.89374-0.20102 1.5394 1.4294 1.5402 1.4299h1.1681l0.83638 0.80615 0.83638 0.80667h0.95266l1.0899-0.89297 1.0891-0.89297 0.87591 0.47749 0.87514 0.47697 1.2519-1.2976 1.2519-1.2981 1.2697-0.67386 1.2705-0.67386 0.77979-2.0485 0.7798-2.0485h0.75732l4.6385 2.7233 2.4014-0.39998 0.25115-0.35553 0.25193-0.35502h3.5882l0.51314 0.7245 1.9658-0.07286 1.9666-0.07286 2.7735 1.4345 0.72785 0.0016 0.72864 0.0021 1.0852 1.0082 1.086 1.0082h2.0836l0.69299 0.60462 0.69375 0.60513h0.82398l1.5526 1.2097 1.5534 1.2097h1.4542l1.3084-1.2097 1.3092-1.2097h0.94103l2.313 1.8149 0.37129 0.29094 0.11239-0.18035 0.52168-0.83457 1.0147-0.60668 1.0154-0.60616 2.2208 0.14572 2.11-1.9513 0.92319 1.4872 0.92321 1.4878h0.55733v-19.844zm0 26.457v1e-3l7.7515e-4 -1e-3zm158.75 0 7.7e-4 1e-3v-1e-3z" fill="#aba49b" fill-opacity=".53659"/>
 <path d="m0 0v19.844h0.05271l0.2775-0.35864 0.2775-0.35812 1.4046-0.66921 1.4046-0.66973 1.479 1.0516 1.4782 1.0511 1.803-0.08165 1.803-0.08217 3.1238 1.572 0.23099 0.39584 0.77825-0.14883 0.77747-0.14883 0.43253 0.39688 1.5968-0.63304 1.1978-1.4548 3.1654-1.6511 2.0669-2.8909 2.586 0.08128 1.7356-1.7377 2.3469 0.89947 1.4957 1.5019 0.9521 0.8362 2.5991-1.1364 0.26278-0.59635 0.262-0.59686 2.6053-0.71624 2.6045-0.71675 1.9363 0.89659 1.9371 0.89607 1.9177 1.5301 1.9185 1.5301 1.4666 1.0614 2.1014-3.8706 2.1006-3.8706 0.71003-0.38241 1.2038 0.9741 1.2038 0.97358 0.2837 0.77876 0.28293 0.77928 1.486-0.02532 1.4852-0.0248 3.3362 1.9451 0.40385 0.60772 0.06589-0.02997 1.5875-0.48628 1.5867-0.48628 2.5859 0.9462 1.0015 0.3669 0.08139-0.11265 1.3681-1.9007 0.43641 1.0516 0.43563 1.0516 0.5147-0.02067 0.84491-1.5984 0.84491-1.5989 1.4929-0.61805 1.4937-0.61857 2.0014 0.26665 0.32014 0.27957 0.32014 0.27905h1.4131l1.3123 1.0966 1.3115 1.0971 0.90924-0.49196 0.90847-0.49196 0.96196-0.50384 0.96273-0.50436 1.4945 1.494 0.16433 0.16433 0.82088-0.16433 1.1263-0.22531 2.6479-1.9446 2.6471-1.9446 0.49532-0.25683 0.49609-0.25632 1.5968-0.48369 1.5968-0.48318 2.5308 1.0868 2.5309 1.0873 0.25036 0.95395 0.25038 0.95395 1.1767 0.80202 1.0875 0.74104 0.49145-1.2904 0.7798-2.0485h0.75732l4.6385 2.7233 2.4014-0.39998 0.25115-0.35553 0.25193-0.35502h3.5882l0.51314 0.7245 1.9658-0.07286 1.9666-0.07286 2.7735 1.4345 0.72785 0.0016 0.72864 0.0021 1.0852 1.0082 0.25425 0.23616 0.6953-0.81959 0.72941-0.8599 5.3733-1.0604 1.5844-0.75499 1.5836-0.75551h1.2332l1.5829 1.3281 1.5836 1.3281 2.2596 2.1156 1.6394 1.5343 0.32867-0.19585 2.2208 0.14572 2.11-1.9513 0.92319 1.4872 0.92321 1.4878h0.55733v-19.844zm0 26.457v1e-3l7.7515e-4 -1e-3zm158.75 0 7.7e-4 1e-3v-1e-3z" fill="#ddd" fill-opacity=".87398"/>
 <path d="m0 0v19.844h0.05271l0.2775-0.35864 0.2775-0.35812 1.4046-0.66921 1.4046-0.66973 1.479 1.0516 0.16588 0.11782 0.93173-0.54002 0.72786-0.59273 0.72786-0.59221 2.051-2.2386 1.6139 0.25838 1.6146 0.2589v0.74879h1.0751l0.77437 0.59893 0.77437 0.59841 3.2091-3.3548 0.73251-1.2165 0.73329-1.2165 1.1712-0.65577 1.1712-0.65526 7e-3 -0.48162 0.0062-0.48111 0.37362-0.5023 0.37284-0.50178 1.1116 0.5116 1.1123 0.51108 1.6991 0.97152 1.6999 0.971 0.94878 1.7766 1.0883 0.42375 1.0875 0.42323 1.8751-0.817 1.8743-0.817 1.2906 0.54364 1.2914 0.54364 0.38912 0.15503 2.2022-0.60616 1.9363 0.89659 1.9371 0.89607 1.7317 1.3818 0.58834-0.50281 1.1681-0.99787-0.2434-0.5426-0.2434-0.54209 0.64725-0.45889 0.64725-0.4594 0.81778 1.509 0.817 1.5095 0.68833 0.35553 0.18914 0.09767 0.59608-1.0986 2.1006-3.8706 0.71003-0.38241 1.2038 0.9741 1.2038 0.97358 0.2837 0.77876 0.28293 0.77928 1.486-0.02532 1.4852-0.02481 0.2899 0.16898 0.70926-0.92501 2.0619-1.0371 2.0619-1.0366 9.2537 2.7564 0.96273-0.64802 0.36509 0.20412 0.88212-0.36535 1.4937-0.61857 2.0014 0.26665 0.13177 0.11524h1.3053l1.8208-1.4268 1.82-1.4268 4.9997 1.7415h1.6503l2.7285 1.2402 0.21704-0.15916 2.6471-1.9446 0.49532-0.25683 0.49609-0.25632 1.5968-0.48369 1.5968-0.48317 2.5309 1.0868 2.2324 0.95912 1.2302-0.76998v-1.7136h1.7092l4.1052 1.8118 3.4262-2.6458 2.1324-2.5027 2.1317-2.5032 0.39067-0.36794 1.648 0.59428 1.6487 0.59428 1.9053 2.0924 1.9053 2.0929 1.7038 1.448 4.6137 3.0014 2.5681 1.6211 1.9177-0.37827 1.5844-0.75499 1.5836-0.75551h1.2332l1.5828 1.3281 1.5836 1.3281 1.1116 1.0408 0.79297-0.64337 1.0968-0.89038 3.1703 2.0851 1.4302 0.94051 0.95654-0.88418 0.92319 1.4872 0.9232 1.4878h0.55733v-19.844zm0 26.457v1e-3l7.7515e-4 -1e-3zm158.75 0 7.7e-4 1e-3v-1e-3z" fill="#e1f5fa"/>
</svg>
