<?xml version="1.0" encoding="UTF-8"?>
<svg width="400" height="100" version="1.1" viewBox="0 0 105.83 26.458" xmlns="http://www.w3.org/2000/svg" xmlns:cc="http://creativecommons.org/ns#" xmlns:dc="http://purl.org/dc/elements/1.1/" xmlns:rdf="http://www.w3.org/1999/02/22-rdf-syntax-ns#">
 <metadata>
  <rdf:RDF>
   <cc:Work rdf:about="">
    <dc:format>image/svg+xml</dc:format>
    <dc:type rdf:resource="http://purl.org/dc/dcmitype/StillImage"/>
    <dc:title/>
   </cc:Work>
  </rdf:RDF>
 </metadata>
 <g fill="#fff">
  <path transform="scale(.26458)" d="m0 0v100l0.625-1.3242v-0.001953l0.625-1.3242 9.9102-2.0742 8.7559-5.1445 8.7539-5.1426 4.6465-1.1172 4.6465-1.1152 4.6699-2.7773 4.6699-2.7754 2.2168-0.035156 2.2168-0.033203 11.871-7.332 5.8242-1.1094 5.8223-1.1094 6.5508-4.2949 6.5488-4.2949 0.66211-2.2539 0.66016-2.2559 6.5645-2.707 6.5625-2.709 4.8789 3.3887 4.8809 3.3867 4.832 5.7832 4.834 5.7832 3.6953 4.0117 5.2949-14.629 5.293-14.629 1.7891-1.4453 3.0332 3.6816 3.0332 3.6797 0.71484 2.9434 0.71289 2.9453 3.7441-0.095703 3.7422-0.09375 8.4062 7.3516 1.8008 4.0625 1.7988 4.0605 2.8652 2.457 2.8672 2.457 5.6445-2.8086 3.4492-7.1836 3.4473-7.1836 1.0996 3.9746 1.0976 3.9746 1.2969-0.078125 2.1289-6.041 2.1289-6.043 3.7617-2.3359 3.7637-2.3379 5.043 1.0078 0.80664 1.0566 0.80664 1.0547h1.7812 1.7793l3.3066 4.1445 3.3047 4.1465 2.291-1.8594 2.2891-1.8594 2.4238-1.9043 2.4258-1.9062 3.7656 5.6465 3.7676 5.6465 2.252-0.76172 2.252-0.75977 3.8789 5.4023 3.8809 5.4043h1.4707 1.4727l2.1074 3.0469 2.1074 3.0488h1.2012 1.1992l2.7461-3.375 2.7441-3.375 2.207 1.8047 2.2051 1.8027 3.1543-4.9043 3.1543-4.9062 3.1992-2.5469 3.2012-2.5469 1.9648-7.7422 1.9648-7.7422h0.95508 0.95312l11.688 10.293 6.0508-1.5117 0.63281-1.3438 0.63477-1.3418h4.5195 4.5215l1.293 2.7383 4.9531-0.27539 4.9551-0.27539 6.9883 5.4219 1.834 0.00586 1.8359 0.007812 2.7344 3.8105 2.7363 3.8105h2.625 2.625l1.7461 2.2852 1.748 2.2871h1.0371 1.0391l3.9121 4.5723 3.9141 4.5723h1.832 1.832l3.2969-4.5723 3.2988-4.5723h1.1856 1.1856l5.8281 6.8594 5.8301 6.8574h1.6973 1.6992l3.8184 3.8105 3.8164 3.8105h1.1426 1.1426l2.7363 3.8105 2.7344 3.8105v-100h-400z" fill-opacity=".25"/>
  <path transform="scale(.26458)" d="m0 0v75h0.13281l0.69922-1.3555 0.69922-1.3535 3.5391-2.5293 3.5391-2.5312 3.7266 3.9746 3.7246 3.9727 4.543-0.30859 4.543-0.31055 7.8711 5.9414 0.29102 0.74805 0.29102 0.74805 1.9609-0.5625 1.959-0.5625 1.0898 1.5 4.0234-2.3926 4.6699-2.7754 2.2168-0.035156 2.2168-0.033203 11.871-7.332 5.8242-1.1094 5.8223-1.1094 6.5508-4.2949 6.5488-4.2949 0.66211-2.2539 0.66016-2.2559 6.5645-2.707 6.5625-2.709 4.8789 3.3887 4.8809 3.3867 4.832 5.7832 4.834 5.7832 3.6953 4.0117 5.2949-14.629 5.293-14.629 1.7891-1.4453 3.0332 3.6816 3.0332 3.6797 0.71484 2.9434 0.71289 2.9453 3.7441-0.095703 3.7422-0.09375 8.4062 7.3516 1.8008 4.0625 1.7988 4.0605 2.8652 2.457 2.8672 2.457 5.6445-2.8086 3.4492-7.1836 3.4473-7.1836 1.0996 3.9746 1.0976 3.9746 1.2969-0.078125 2.1289-6.041 2.1289-6.043 3.7617-2.3359 3.7637-2.3379 5.043 1.0078 0.80664 1.0566 0.80664 1.0547h1.7812 1.7793l3.3066 4.1445 3.3047 4.1465 2.291-1.8594 2.2891-1.8594 2.4238-1.9043 2.4258-1.9062 3.7656 5.6465 3.7676 5.6465 2.252-0.76172 2.252-0.75977 3.8789 5.4023 3.8809 5.4043h1.4707 1.4727l2.1074 3.0469 2.1074 3.0488h1.2012 1.1992l2.7461-3.375 2.7441-3.375 2.207 1.8047 2.2051 1.8027 3.1543-4.9043 3.1543-4.9062 3.1992-2.5469 3.2012-2.5469 1.9648-7.7422 1.9648-7.7422h0.95508 0.95312l11.688 10.293 6.0508-1.5117 0.63281-1.3438 0.63477-1.3418h4.5195 4.5215l1.293 2.7383 4.9531-0.27539 4.9551-0.27539 6.9883 5.4219 1.834 0.00586 1.8359 0.007812 2.7344 3.8105 2.7363 3.8105h2.625 2.625l1.7461 2.2852 1.748 2.2871h1.0371 1.0391l3.9121 4.5723 3.9141 4.5723h1.832 1.832l3.2969-4.5723 3.2988-4.5723h1.1856 1.1856l5.8281 6.8594 0.93555 1.0996 0.2832-0.68164 1.3145-3.1543 2.5566-2.293 2.5586-2.291 2.7969 0.27539 2.7988 0.27539 5.3164-7.375 2.3262 5.6211 2.3262 5.623h0.76758 0.63672v-75h-400zm0 99.996v0.003906l0.0019531-0.003906h-0.0019531zm400 0 0.00195 0.003906v-0.003906h-0.00195z" fill-opacity=".4"/>
  <path transform="scale(.26458)" d="m0 0v75h0.13281l0.69922-1.3555 0.69922-1.3535 3.5391-2.5293 3.5391-2.5312 3.7266 3.9746 3.7246 3.9727 4.543-0.30859 4.543-0.31055 7.8711 5.9414 0.29102 0.74805 0.29102 0.74805 1.9609-0.5625 1.959-0.5625 1.0898 1.5 4.0234-2.3926 3.0181-5.4986 7.9757-6.2405 5.2079-10.926 6.5159 0.3072 4.373-6.5678 5.9135 3.3996 3.7687 5.6763 2.399 3.1604 6.5488-4.2949 0.66211-2.2539 0.66016-2.2559 6.5645-2.707 6.5625-2.709 4.8789 3.3887 4.8809 3.3867 4.832 5.7832 4.834 5.7832 3.6953 4.0117 5.2949-14.629 5.293-14.629 1.7891-1.4453 3.0332 3.6816 3.0332 3.6797 0.71484 2.9434 0.71289 2.9453 3.7441-0.0957 3.7422-0.09375 8.4062 7.3516 1.0176 2.2969 0.16601-0.11328 4-1.8379 3.998-1.8379 6.5156 3.5762 2.5234 1.3867 0.20508-0.42578 3.4473-7.1836 1.0996 3.9746 1.0976 3.9746 1.2969-0.07812 2.1289-6.041 2.1289-6.043 3.7617-2.3359 3.7637-2.3379 5.043 1.0078 0.80664 1.0566 0.80664 1.0547h3.5606l3.3066 4.1445 3.3047 4.1465 2.291-1.8594 2.2891-1.8594 2.4238-1.9043 2.4258-1.9062 3.7656 5.6465 0.41406 0.62109 2.0684-0.62109 2.8379-0.85156 6.6719-7.3496 6.6699-7.3496 1.248-0.9707 1.25-0.96875 4.0234-1.8281 4.0234-1.8262 6.377 4.1074 6.377 4.1094 0.63085 3.6055 0.63086 3.6055 2.9648 3.0312 2.7402 2.8008 1.2383-4.877 1.9648-7.7422h1.9082l11.688 10.293 6.0508-1.5117 0.63281-1.3438 0.63477-1.3418h9.041l1.293 2.7383 4.9531-0.27539 4.9551-0.27539 6.9883 5.4219 1.834 0.0059 1.8359 0.0078 2.7344 3.8105 0.64062 0.89258 1.752-3.0977 1.8379-3.25 13.539-4.0078 3.9922-2.8535 3.9902-2.8555h3.1074l3.9883 5.0195 3.9902 5.0195 5.6934 7.9961 4.1308 5.7988 0.82813-0.74023 2.7969 0.27539 2.7988 0.27539 5.3164-7.375 2.3262 5.6211 2.3262 5.623h1.4043v-75zm0 99.996v0.003906l0.0019531-0.0039zm400 0 0.00195 0.003906v-0.0039z" fill-opacity=".50406"/>
  <path transform="scale(.26458)" d="m0 0v75h0.13281l0.69922-1.3555 0.69922-1.3535 3.5391-2.5293 3.5391-2.5312 3.7266 3.9746 0.41797 0.44531 2.3477-2.041 1.834-2.2402 1.834-2.2383 5.168-8.4609 4.0664 0.97656 4.0684 0.97852v1.416 1.4141h1.3555 1.3535l1.9512 2.2637 1.9512 2.2617 8.0859-12.68 1.8457-4.5977 1.8477-4.5977 2.9512-2.4785 2.9512-2.4766 0.017578-1.8203 0.015626-1.8184 0.94141-1.8984 0.93945-1.8965 2.8008 1.9336 2.8027 1.9316 4.2812 3.6719 4.2832 3.6699 2.3906 6.7148 2.7422 1.6016 2.7402 1.5996 4.7246-3.0879 4.7227-3.0879 3.252 2.0547 3.2539 2.0547 0.98047 0.58594 5.5488-2.291 4.8789 3.3887 4.8809 3.3867 4.3633 5.2227 1.4824-1.9004 2.9434-3.7715-0.61328-2.0508-0.61328-2.0488 1.6309-1.7344 1.6309-1.7363 2.0606 5.7031 2.0586 5.7051 1.7344 1.3438 0.47657 0.36914 1.502-4.1523 5.293-14.629 1.7891-1.4453 3.0332 3.6816 3.0332 3.6797 0.71484 2.9434 0.71289 2.9453 3.7441-0.095703 3.7422-0.09375 0.73047 0.63867 1.7871-3.4961 5.1953-3.9199 5.1953-3.918 23.316 10.418 2.4258-2.4492 0.91992 0.77148 2.2227-1.3809 3.7637-2.3379 5.043 1.0078 0.33203 0.43555h1.0098 2.2793l4.5879-5.3926 4.5859-5.3926 12.598 6.582h2.0801 2.0781l6.875 4.6875 0.54688-0.60156 6.6699-7.3496 1.248-0.9707 1.25-0.96875 4.0234-1.8281 4.0234-1.8262 6.377 4.1074 5.625 3.625 3.0996-2.9102v-3.2383-3.2383h2.1543 2.1523l10.344 6.8477 8.6328-10 5.373-9.459 5.3711-9.4609 0.49218-0.69531 0.49219-0.69531 4.1523 2.2461 4.1543 2.2461 4.8008 7.9082 4.8008 7.9102 2.1465 2.7363 2.1465 2.7363 11.625 11.344 6.4707 6.127 4.832-1.4297 3.9922-2.8535 3.9902-2.8555h1.5547 1.5527l3.9883 5.0195 3.9902 5.0195 2.8008 3.9336 1.998-2.4316 2.7637-3.3652 7.9883 7.8809 3.6035 3.5547 2.4102-3.3418 2.3262 5.6211 2.3262 5.623h0.76758 0.63672v-75h-400zm0 99.996v0.003906l0.0019531-0.003906h-0.0019531zm400 0 0.00195 0.003906v-0.003906h-0.00195z"/>
 </g>
</svg>
