<?xml version="1.0" encoding="UTF-8"?>
<svg version="1.1" viewBox="0 0 581.66 152.38" xmlns="http://www.w3.org/2000/svg" xmlns:cc="http://creativecommons.org/ns#" xmlns:dc="http://purl.org/dc/elements/1.1/" xmlns:rdf="http://www.w3.org/1999/02/22-rdf-syntax-ns#">
 <metadata>
  <rdf:RDF>
   <cc:Work rdf:about="">
    <dc:format>image/svg+xml</dc:format>
    <dc:type rdf:resource="http://purl.org/dc/dcmitype/StillImage"/>
    <dc:title/>
   </cc:Work>
  </rdf:RDF>
 </metadata>
 <g transform="translate(121.8 -413.32)">
  <path d="m362.08 560.72c-27.226-3.1013-55.774-17.426-62.527-31.376-2.9182-6.0282-2.0997-8.5392 4.3777-13.43 9.1817-6.9322 14.281-4.3019 6.6781 3.4447-3.6986 3.7686-4.1531 4.7073-3.5682 7.3702 1.9076 8.685 24.828 20.002 50.015 24.696 13.082 2.4379 42.959 1.6366 53.373-1.4313 12.955-3.8164 20.47-8.8939 24.312-16.425 3.1308-6.137 2.2917-14.732-2.1075-21.588-4.4034-6.8621-11.296-12.317-31.7-25.089-26.432-16.545-32.362-22.426-32.353-32.088 0.01-11.262 15.415-23.769 32.269-26.197 8.7204-1.2563 18.027 0.51291 25.387 4.8259 4.266 2.5 4.3084 2.578 2.7218 4.9994-1.9634 2.9966-3.3193 3.0324-13.715 0.36208-9.7262-2.4983-15.33-2.1145-23.494 1.6092-6.8768 3.1366-15.173 10.928-15.173 14.251 0 6.7138 6.2572 12.456 27.254 25.011 24.625 14.724 32.816 21.707 38.247 32.604 3.5458 7.1155 3.5219 17.178-0.0578 24.362-9.2051 18.472-42.134 28.395-79.939 24.089z"/>
  <path d="m46.243 493.01c-4.183-4.183-1.8704-9.5372 3.8828-8.99 4.6442 0.44174 5.1012 3.5152 1.176 7.9084l-2.8976 3.2429z"/>
  <path d="m77.581 550.42c-0.55-0.21902-2.1601-0.65172-3.5779-0.96156-1.4179-0.30983-3.7804-1.6777-5.25-3.0397-10.291-9.5378 10.863-40.572 27.656-40.572 7.5695 0 14.033 6.1386 13.479 12.802-0.27872 3.3544-0.6052 3.7266-3.5156 4.008-2.8496 0.27557-3.6149-0.25557-6.8438-4.75-5.4124-7.5336-6.6698-7.117-15.665 5.1898-13.856 18.956-13.664 19.75 4.7773 19.75 12.714 0 24.447-3.0263 44.293-11.424 7.7298-3.2708 10.527-3.1127 10.958 0.61924 0.25158 2.1793-0.42269 3.181-3.5221 5.232-5.2644 3.4838-16.096 7.0192-31.13 10.161-11.331 2.3676-29.021 4.0356-31.659 2.985z"/>
  <path d="m-2.5009 548.76c-1.5068-1.6669-1.8783-3.4381-1.7337-8.2641 0.10124-3.3784-0.2843-11.436-0.85674-17.905-0.91456-10.336-0.84311-12.064 0.58898-14.25 1.8898-2.8842 4.1908-3.1513 7.4546-0.86526 1.9104 1.3381 2.2488 2.3261 1.9325 5.6422l-0.38338 4.02 3.54-3.9677c1.947-2.1823 5.115-4.523 7.04-5.2016 5.4079-1.9064 20.618-2.6772 22.471-1.1388 4.037 3.3504-0.21334 6.1284-12.635 8.2586-6.057 1.0387-7.8089 1.8046-10.669 4.6646-4.4733 4.4733-6.6596 9.6106-8.7687 20.604-0.94927 4.9481-1.7648 9.0532-1.8123 9.1224-0.0475 0.0692-1.0233 0.41304-2.1686 0.76414-1.4272 0.43754-2.6855-0.0291-4-1.4832z"/>
  <path d="m48.081 549.12c-1.9922-2.5327-2.1227-3.6755-1.8226-15.967 0.273-11.182 0.60473-13.516 2.1344-15.022 1.7382-1.711 1.8699-1.7035 3.2704 0.18625 2.4572 3.3155 3.6666 9.582 3.7954 19.665 0.10444 8.1767-0.1652 9.9547-1.7819 11.75-2.4591 2.7307-3.0136 2.67-5.5957-0.61253z"/>
  <path d="m-94.998 564.84c-5.6929-0.96354-12.517-4.3677-13.887-6.9272-2.0427-3.8169-0.92957-15.418 3.5264-36.753l0.66639-3.1906-4.8631-0.30941c-4.0355-0.25676-4.9135-0.66199-5.1593-2.3813-0.24622-1.7222 0.68197-2.3918 5.5-3.9673 3.1879-1.0425 5.9222-1.9612 6.0763-2.0415 0.99364-0.51821 6.3767-33.846 6.8919-42.669 0.54478-9.3303 0.42216-10.75-0.92853-10.75-0.85591 0-5.9714 1.5383-11.368 3.4185-10.978 3.8248-13.74 3.5659-13.186-1.2358 0.2538-2.1968 1.4872-3.2621 6.8099-5.8814 8.4186-4.1428 28.316-9.9072 56.201-16.282 12.264-2.8039 32.649-7.7801 45.299-11.058 12.65-3.2783 26.6-6.629 31-7.4461 10.971-2.0374 33.542-4.6068 34.619-3.941 1.5918 0.98377 0.9219 3.3536-1.3691 4.8436-3.9234 2.5516-19.422 6.5186-47.25 12.094-23.825 4.7735-69.802 15.716-84.068 20.008l-5.068 1.5248-1.1992 11.505c-1.0363 9.9421-5.0283 34.008-6.8598 41.356-0.56717 2.2754-0.41696 2.3665 2.7978 1.6985 8.9053-1.8505 53.398-8.4114 54.1-7.9776 1.9275 1.1912 0.46671 3.3563-3.5893 5.3198-4.6979 2.2742-33.789 9.1344-47.327 11.161l-8.2139 1.2293-1.0352 5.0825c-5.5691 27.343-5.7477 28.53-4.6307 30.77 1.622 3.2534 7.4729 4.6468 19.883 4.7352 20.938 0.14914 37.647-2.7222 57.915-9.9523 8.6178-3.0741 11.433-3.7 12.963-2.8813 3.0005 1.6058 1.9279 5.1129-2.1673 7.0862-5.85 2.8189-27.034 9.5931-35 11.192-16.445 3.3013-36.474 4.4166-47.08 2.6216z"/>
  <path d="m325.1 422.5-57.489 9.2872-58.048 12.369s-7.8979 1.8929-11.289 3.6722c-1.8043 0.94678-6.2359 4.155-5.013 5.5064 1.5819 1.748 11.017 0.54404 11.017 0.54404 13.873-2.0756 33.198-8.7995 50.296-10.873 0 0 1.3109 15.451 1.3601 23.121 0.0772 12.036-0.0104 35.229-3.1453 46.849-3.0027 11.128-4.0201 17.158-10.895 26.316-3.7984 5.0591-16.952 16.001-23.264 15.582-9.4872-0.63038-14.578-9.8519-18.558-18.487-2.9928-6.494-3.5695-11.31-7.5559-15.515-0.95012-1.0023-2.5571-2.2169-3.8082-1.6321-1.7152 0.80167-1.2527 3.2277-0.68005 5.0323 2.4946 7.8612 3.5886 11.179 6.5284 16.865 4.6311 8.9575 10.838 19.307 20.809 20.809 9.1927 1.3852 20.508-5.332 27.512-11.444 13.513-11.791 15.444-23.19 17.913-35.8 2.5866-13.213 3.6532-29.186 4.0336-42.644 0.21015-7.4344-2.0891-30.412-2.0891-30.412l63.201-12.415s7.2821-1.4797 6.2564-4.4883c-0.87836-2.5765-7.0918-2.2421-7.0918-2.2421z"/>
  <path d="m268.51 556.07c-5.8238-1.0382-1.7811-9.0908 3.9721-8.5436 4.6442 0.44174 4.5196 4.2975 2.0599 6.2669l-3.4243 2.7416z"/>
  <path d="m453.53 550.64c2.8286-1.6632 8.6838 0.99752 5.3144 5.6929-2.2732 3.1677-6.9356 4.0328-7.4-0.30011l-0.42013-3.9194z"/>
 </g>
</svg>
