<?xml version="1.0" encoding="UTF-8"?>
<svg width="26.795" height="62.634" version="1.1" viewBox="0 0 7.0894 16.572" xmlns="http://www.w3.org/2000/svg" xmlns:cc="http://creativecommons.org/ns#" xmlns:dc="http://purl.org/dc/elements/1.1/" xmlns:rdf="http://www.w3.org/1999/02/22-rdf-syntax-ns#">
 <metadata>
  <rdf:RDF>
   <cc:Work rdf:about="">
    <dc:format>image/svg+xml</dc:format>
    <dc:type rdf:resource="http://purl.org/dc/dcmitype/StillImage"/>
    <dc:title/>
   </cc:Work>
  </rdf:RDF>
 </metadata>
 <g transform="translate(-4.922 -.18899)">
  <g>
   <rect x="4.922" y="12.472" width="7.0894" height="1.9776" stroke-width=".31817"/>
   <rect x="4.9586" y=".89667" width="7.0162" height="1.9608" fill="#020202" stroke-width=".3272"/>
   <rect x="5.325" y=".18899" width="6.2833" height="16.536" ry=".42522" fill="#3c3c3c"/>
   <rect x="5.7602" y="3.6811" width="5.4129" height="1.415" ry=".23624" fill="#a7cccc" stroke-width=".3335"/>
  </g>
  <rect x="5.3963" y="9.6654" width="6.1407" height="7.06"/>
  <g>
   <rect transform="rotate(90)" x="4.8473" y="-11.164" width="4.2179" height=".34587" ry=".057746" fill="#a7cccc" stroke-width=".14555"/>
   <rect transform="rotate(90)" x="4.86" y="-6.1261" width="4.2179" height=".34587" ry=".057746" fill="#a7cccc" stroke-width=".14555"/>
   <rect x="6.4244" y="9.7329" width=".19018" height="6.8744" ry="0" fill="#818181"/>
   <rect x="10.345" y="9.6924" width=".19018" height="6.8744" ry="0" fill="#818181"/>
   <rect x="5.8409" y=".19489" width="1.0158" height=".29529" fill="#fff8aa"/>
   <rect x="10.105" y=".2008" width="1.0158" height=".29529" fill="#fff8aa"/>
   <circle cx="5.5102" cy="16.554" r=".20671" fill="#900"/>
   <circle cx="11.426" cy="16.537" r=".20671" fill="#900"/>
  </g>
 </g>
</svg>
