<svg version="1.1" viewBox="0.0 0.0 600.0 371.0" fill="none" stroke="none" stroke-linecap="square" stroke-miterlimit="10" width="600" height="371" xmlns:xlink="http://www.w3.org/1999/xlink" xmlns="http://www.w3.org/2000/svg"><path fill="#ffffff" d="M0 0L600.0 0L600.0 371.0L0 371.0L0 0Z" fill-rule="nonzero"/><path stroke="#333333" stroke-width="1.0" stroke-linecap="butt" d="M59.5 332.5L581.5 332.5" fill-rule="nonzero"/><path stroke="#cccccc" stroke-width="1.0" stroke-linecap="butt" d="M59.5 271.5L581.5 271.5" fill-rule="nonzero"/><path stroke="#cccccc" stroke-width="1.0" stroke-linecap="butt" d="M59.5 210.5L581.5 210.5" fill-rule="nonzero"/><path stroke="#cccccc" stroke-width="1.0" stroke-linecap="butt" d="M59.5 149.5L581.5 149.5" fill-rule="nonzero"/><path stroke="#cccccc" stroke-width="1.0" stroke-linecap="butt" d="M59.5 88.5L581.5 88.5" fill-rule="nonzero"/><clipPath id="id_0"><path d="M59.55 88.28333L581.45 88.28333L581.45 332.45L59.55 332.45L59.55 88.28333Z" clip-rule="nonzero"/></clipPath><path fill="#4285f4" fill-opacity="0.3019608" clip-path="url(#id_0)" d="M59.55 253.67897L320.5 188.68344L581.45 135.19206L581.45 332.45L320.5 332.45L59.55 332.45Z" fill-rule="nonzero"/><path fill="#ea4335" fill-opacity="0.3019608" clip-path="url(#id_0)" d="M59.55 317.72314L320.5 293.4938L581.45 249.31111L581.45 332.45L320.5 332.45L59.55 332.45Z" fill-rule="nonzero"/><path stroke="#4285f4" stroke-width="2.0" stroke-linecap="butt" clip-path="url(#id_0)" d="M59.55 253.67897L320.5 188.68344L581.45 135.19206" fill-rule="nonzero"/><path stroke="#ea4335" stroke-width="2.0" stroke-linecap="butt" clip-path="url(#id_0)" d="M59.55 317.72314L320.5 293.4938L581.45 249.31111" fill-rule="nonzero"/><path fill="#000000" fill-opacity="0.0" clip-path="url(#id_0)" d="M62.55 253.67897C62.55 255.33583 61.206856 256.679 59.55 256.679C57.893147 256.679 56.55 255.33583 56.55 253.67897C56.55 252.02213 57.893147 250.67897 59.55 250.67897C61.206856 250.67897 62.55 252.02213 62.55 253.67897Z" fill-rule="nonzero"/><path fill="#000000" fill-opacity="0.0" clip-path="url(#id_0)" d="M323.5 188.68344C323.5 190.34029 322.15686 191.68344 320.5 191.68344C318.84314 191.68344 317.5 190.34029 317.5 188.68344C317.5 187.02658 318.84314 185.68344 320.5 185.68344C322.15686 185.68344 323.5 187.02658 323.5 188.68344Z" fill-rule="nonzero"/><path fill="#000000" fill-opacity="0.0" clip-path="url(#id_0)" d="M584.45 135.19206C584.45 136.84892 583.1069 138.19206 581.45 138.19206C579.79315 138.19206 578.45 136.84892 578.45 135.19206C578.45 133.53522 579.79315 132.19206 581.45 132.19206C583.1069 132.19206 584.45 133.53522 584.45 135.19206Z" fill-rule="nonzero"/><path fill="#000000" fill-opacity="0.0" clip-path="url(#id_0)" d="M62.55 317.72314C62.55 319.37997 61.206856 320.72314 59.55 320.72314C57.893147 320.72314 56.55 319.37997 56.55 317.72314C56.55 316.06628 57.893147 314.72314 59.55 314.72314C61.206856 314.72314 62.55 316.06628 62.55 317.72314Z" fill-rule="nonzero"/><path fill="#000000" fill-opacity="0.0" clip-path="url(#id_0)" d="M323.5 293.4938C323.5 295.15063 322.15686 296.4938 320.5 296.4938C318.84314 296.4938 317.5 295.15063 317.5 293.4938C317.5 291.83694 318.84314 290.4938 320.5 290.4938C322.15686 290.4938 323.5 291.83694 323.5 293.4938Z" fill-rule="nonzero"/><path fill="#000000" fill-opacity="0.0" clip-path="url(#id_0)" d="M584.45 249.31111C584.45 250.96797 583.1069 252.31111 581.45 252.31111C579.79315 252.31111 578.45 250.96797 578.45 249.31111C578.45 247.65425 579.79315 246.31111 581.45 246.31111C583.1069 246.31111 584.45 247.65425 584.45 249.31111Z" fill-rule="nonzero"/><path fill="#000000" d="M19.05 332.21564Q19.05 330.6844 19.3625 329.7625Q19.675 328.825 20.284374 328.325Q20.909374 327.825 21.846874 327.825Q22.534374 327.825 23.05 328.10626Q23.58125 328.3875 23.925 328.91876Q24.26875 329.4344 24.45625 330.1844Q24.64375 330.9344 24.64375 332.21564Q24.64375 333.73126 24.33125 334.65314Q24.034374 335.575 23.409374 336.09064Q22.8 336.59064 21.846874 336.59064Q20.6125 336.59064 19.89375 335.7Q19.05 334.6375 19.05 332.21564ZM20.128124 332.21564Q20.128124 334.325 20.628124 335.02814Q21.128124 335.73126 21.846874 335.73126Q22.58125 335.73126 23.065624 335.02814Q23.565624 334.325 23.565624 332.21564Q23.565624 330.09064 23.065624 329.40314Q22.58125 328.7 21.83125 328.7Q21.1125 328.7 20.675 329.3094Q20.128124 330.09064 20.128124 332.21564ZM26.64375 336.45L26.64375 335.2469L27.846874 335.2469L27.846874 336.45L26.64375 336.45ZM29.05 332.21564Q29.05 330.6844 29.3625 329.7625Q29.675 328.825 30.284374 328.325Q30.909374 327.825 31.846874 327.825Q32.534374 327.825 33.05 328.10626Q33.58125 328.3875 33.925 328.91876Q34.26875 329.4344 34.45625 330.1844Q34.64375 330.9344 34.64375 332.21564Q34.64375 333.73126 34.33125 334.65314Q34.034374 335.575 33.409374 336.09064Q32.8 336.59064 31.846874 336.59064Q30.6125 336.59064 29.89375 335.7Q29.05 334.6375 29.05 332.21564ZM30.128124 332.21564Q30.128124 334.325 30.628124 335.02814Q31.128124 335.73126 31.846874 335.73126Q32.58125 335.73126 33.065624 335.02814Q33.565624 334.325 33.565624 332.21564Q33.565624 330.09064 33.065624 329.40314Q32.58125 328.7 31.83125 328.7Q31.1125 328.7 30.675 329.3094Q30.128124 330.09064 30.128124 332.21564ZM36.05 332.21564Q36.05 330.6844 36.3625 329.7625Q36.675 328.825 37.284374 328.325Q37.909374 327.825 38.846874 327.825Q39.534374 327.825 40.05 328.10626Q40.58125 328.3875 40.925 328.91876Q41.26875 329.4344 41.45625 330.1844Q41.64375 330.9344 41.64375 332.21564Q41.64375 333.73126 41.33125 334.65314Q41.034374 335.575 40.409374 336.09064Q39.8 336.59064 38.846874 336.59064Q37.6125 336.59064 36.89375 335.7Q36.05 334.6375 36.05 332.21564ZM37.128124 332.21564Q37.128124 334.325 37.628124 335.02814Q38.128124 335.73126 38.846874 335.73126Q39.58125 335.73126 40.065624 335.02814Q40.565624 334.325 40.565624 332.21564Q40.565624 330.09064 40.065624 329.40314Q39.58125 328.7 38.83125 328.7Q38.1125 328.7 37.675 329.3094Q37.128124 330.09064 37.128124 332.21564ZM43.253124 329.91876Q43.253124 328.9969 43.70625 328.35626Q44.175 327.71564 45.05 327.71564Q45.8625 327.71564 46.39375 328.29376Q46.925 328.8719 46.925 329.98126Q46.925 331.075 46.378124 331.66876Q45.846874 332.2469 45.065624 332.2469Q44.284374 332.2469 43.76875 331.66876Q43.253124 331.09064 43.253124 329.91876ZM45.08125 328.4344Q44.690624 328.4344 44.425 328.77814Q44.175 329.1219 44.175 330.02814Q44.175 330.85626 44.425 331.2Q44.690624 331.52814 45.08125 331.52814Q45.4875 331.52814 45.7375 331.1844Q46.003124 330.84064 46.003124 329.95Q46.003124 329.10626 45.7375 328.77814Q45.471874 328.4344 45.08125 328.4344ZM45.08125 336.7625L49.784374 327.71564L50.64375 327.71564L45.95625 336.7625L45.08125 336.7625ZM48.8 334.4344Q48.8 333.5125 49.253124 332.8719Q49.721874 332.23126 50.6125 332.23126Q51.425 332.23126 51.95625 332.8094Q52.4875 333.3719 52.4875 334.4969Q52.4875 335.59064 51.940624 336.1844Q51.409374 336.7625 50.6125 336.7625Q49.846874 336.7625 49.315624 336.1844Q48.8 335.60626 48.8 334.4344ZM50.64375 332.95Q50.2375 332.95 49.971874 333.29376Q49.721874 333.6375 49.721874 334.54376Q49.721874 335.35626 49.9875 335.7Q50.253124 336.04376 50.64375 336.04376Q51.034374 336.04376 51.3 335.7Q51.565624 335.35626 51.565624 334.45Q51.565624 333.6219 51.3 333.29376Q51.034374 332.95 50.64375 332.95Z" fill-rule="nonzero"/><path fill="#000000" d="M24.596874 274.3927L24.596874 275.40833L18.909374 275.40833Q18.909374 275.03333 19.034374 274.67395Q19.253124 274.09583 19.721874 273.53333Q20.20625 272.97083 21.1125 272.23645Q22.51875 271.0802 23.003124 270.40833Q23.503124 269.73645 23.503124 269.1427Q23.503124 268.5177 23.05 268.09583Q22.596874 267.65833 21.878124 267.65833Q21.1125 267.65833 20.659374 268.11145Q20.20625 268.56458 20.190624 269.37708L19.1125 269.2677Q19.221874 268.04895 19.940624 267.42395Q20.675 266.78333 21.909374 266.78333Q23.14375 266.78333 23.8625 267.47083Q24.58125 268.15833 24.58125 269.17395Q24.58125 269.68958 24.3625 270.18958Q24.159374 270.67395 23.659374 271.23645Q23.175 271.78333 22.05 272.73645Q21.096874 273.53333 20.815624 273.8302Q20.55 274.11145 20.378124 274.3927L24.596874 274.3927ZM26.64375 275.40833L26.64375 274.2052L27.846874 274.2052L27.846874 275.40833L26.64375 275.40833ZM29.05 271.17395Q29.05 269.6427 29.3625 268.72083Q29.675 267.78333 30.284374 267.28333Q30.909374 266.78333 31.846874 266.78333Q32.534374 266.78333 33.05 267.06458Q33.58125 267.34583 33.925 267.87708Q34.26875 268.3927 34.45625 269.1427Q34.64375 269.8927 34.64375 271.17395Q34.64375 272.68958 34.33125 273.61145Q34.034374 274.53333 33.409374 275.04895Q32.8 275.54895 31.846874 275.54895Q30.6125 275.54895 29.89375 274.65833Q29.05 273.59583 29.05 271.17395ZM30.128124 271.17395Q30.128124 273.28333 30.628124 273.98645Q31.128124 274.68958 31.846874 274.68958Q32.58125 274.68958 33.065624 273.98645Q33.565624 273.28333 33.565624 271.17395Q33.565624 269.04895 33.065624 268.36145Q32.58125 267.65833 31.83125 267.65833Q31.1125 267.65833 30.675 268.2677Q30.128124 269.04895 30.128124 271.17395ZM36.05 271.17395Q36.05 269.6427 36.3625 268.72083Q36.675 267.78333 37.284374 267.28333Q37.909374 266.78333 38.846874 266.78333Q39.534374 266.78333 40.05 267.06458Q40.58125 267.34583 40.925 267.87708Q41.26875 268.3927 41.45625 269.1427Q41.64375 269.8927 41.64375 271.17395Q41.64375 272.68958 41.33125 273.61145Q41.034374 274.53333 40.409374 275.04895Q39.8 275.54895 38.846874 275.54895Q37.6125 275.54895 36.89375 274.65833Q36.05 273.59583 36.05 271.17395ZM37.128124 271.17395Q37.128124 273.28333 37.628124 273.98645Q38.128124 274.68958 38.846874 274.68958Q39.58125 274.68958 40.065624 273.98645Q40.565624 273.28333 40.565624 271.17395Q40.565624 269.04895 40.065624 268.36145Q39.58125 267.65833 38.83125 267.65833Q38.1125 267.65833 37.675 268.2677Q37.128124 269.04895 37.128124 271.17395ZM43.253124 268.87708Q43.253124 267.9552 43.70625 267.31458Q44.175 266.67395 45.05 266.67395Q45.8625 266.67395 46.39375 267.25208Q46.925 267.8302 46.925 268.93958Q46.925 270.03333 46.378124 270.62708Q45.846874 271.2052 45.065624 271.2052Q44.284374 271.2052 43.76875 270.62708Q43.253124 270.04895 43.253124 268.87708ZM45.08125 267.3927Q44.690624 267.3927 44.425 267.73645Q44.175 268.0802 44.175 268.98645Q44.175 269.81458 44.425 270.15833Q44.690624 270.48645 45.08125 270.48645Q45.4875 270.48645 45.7375 270.1427Q46.003124 269.79895 46.003124 268.90833Q46.003124 268.06458 45.7375 267.73645Q45.471874 267.3927 45.08125 267.3927ZM45.08125 275.72083L49.784374 266.67395L50.64375 266.67395L45.95625 275.72083L45.08125 275.72083ZM48.8 273.3927Q48.8 272.47083 49.253124 271.8302Q49.721874 271.18958 50.6125 271.18958Q51.425 271.18958 51.95625 271.7677Q52.4875 272.3302 52.4875 273.4552Q52.4875 274.54895 51.940624 275.1427Q51.409374 275.72083 50.6125 275.72083Q49.846874 275.72083 49.315624 275.1427Q48.8 274.56458 48.8 273.3927ZM50.64375 271.90833Q50.2375 271.90833 49.971874 272.25208Q49.721874 272.59583 49.721874 273.50208Q49.721874 274.31458 49.9875 274.65833Q50.253124 275.00208 50.64375 275.00208Q51.034374 275.00208 51.3 274.65833Q51.565624 274.31458 51.565624 273.40833Q51.565624 272.5802 51.3 272.25208Q51.034374 271.90833 50.64375 271.90833Z" fill-rule="nonzero"/><path fill="#000000" d="M22.425 214.36667L22.425 212.30417L18.70625 212.30417L18.70625 211.33542L22.628124 205.77292L23.4875 205.77292L23.4875 211.33542L24.64375 211.33542L24.64375 212.30417L23.4875 212.30417L23.4875 214.36667L22.425 214.36667ZM22.425 211.33542L22.425 207.47604L19.7375 211.33542L22.425 211.33542ZM26.64375 214.36667L26.64375 213.16354L27.846874 213.16354L27.846874 214.36667L26.64375 214.36667ZM29.05 210.1323Q29.05 208.60104 29.3625 207.67917Q29.675 206.74167 30.284374 206.24167Q30.909374 205.74167 31.846874 205.74167Q32.534374 205.74167 33.05 206.02292Q33.58125 206.30417 33.925 206.83542Q34.26875 207.35104 34.45625 208.10104Q34.64375 208.85104 34.64375 210.1323Q34.64375 211.64792 34.33125 212.5698Q34.034374 213.49167 33.409374 214.0073Q32.8 214.5073 31.846874 214.5073Q30.6125 214.5073 29.89375 213.61667Q29.05 212.55417 29.05 210.1323ZM30.128124 210.1323Q30.128124 212.24167 30.628124 212.9448Q31.128124 213.64792 31.846874 213.64792Q32.58125 213.64792 33.065624 212.9448Q33.565624 212.24167 33.565624 210.1323Q33.565624 208.0073 33.065624 207.3198Q32.58125 206.61667 31.83125 206.61667Q31.1125 206.61667 30.675 207.22604Q30.128124 208.0073 30.128124 210.1323ZM36.05 210.1323Q36.05 208.60104 36.3625 207.67917Q36.675 206.74167 37.284374 206.24167Q37.909374 205.74167 38.846874 205.74167Q39.534374 205.74167 40.05 206.02292Q40.58125 206.30417 40.925 206.83542Q41.26875 207.35104 41.45625 208.10104Q41.64375 208.85104 41.64375 210.1323Q41.64375 211.64792 41.33125 212.5698Q41.034374 213.49167 40.409374 214.0073Q39.8 214.5073 38.846874 214.5073Q37.6125 214.5073 36.89375 213.61667Q36.05 212.55417 36.05 210.1323ZM37.128124 210.1323Q37.128124 212.24167 37.628124 212.9448Q38.128124 213.64792 38.846874 213.64792Q39.58125 213.64792 40.065624 212.9448Q40.565624 212.24167 40.565624 210.1323Q40.565624 208.0073 40.065624 207.3198Q39.58125 206.61667 38.83125 206.61667Q38.1125 206.61667 37.675 207.22604Q37.128124 208.0073 37.128124 210.1323ZM43.253124 207.83542Q43.253124 206.91354 43.70625 206.27292Q44.175 205.6323 45.05 205.6323Q45.8625 205.6323 46.39375 206.21042Q46.925 206.78854 46.925 207.89792Q46.925 208.99167 46.378124 209.58542Q45.846874 210.16354 45.065624 210.16354Q44.284374 210.16354 43.76875 209.58542Q43.253124 209.0073 43.253124 207.83542ZM45.08125 206.35104Q44.690624 206.35104 44.425 206.6948Q44.175 207.03854 44.175 207.9448Q44.175 208.77292 44.425 209.11667Q44.690624 209.4448 45.08125 209.4448Q45.4875 209.4448 45.7375 209.10104Q46.003124 208.7573 46.003124 207.86667Q46.003124 207.02292 45.7375 206.6948Q45.471874 206.35104 45.08125 206.35104ZM45.08125 214.67917L49.784374 205.6323L50.64375 205.6323L45.95625 214.67917L45.08125 214.67917ZM48.8 212.35104Q48.8 211.42917 49.253124 210.78854Q49.721874 210.14792 50.6125 210.14792Q51.425 210.14792 51.95625 210.72604Q52.4875 211.28854 52.4875 212.41354Q52.4875 213.5073 51.940624 214.10104Q51.409374 214.67917 50.6125 214.67917Q49.846874 214.67917 49.315624 214.10104Q48.8 213.52292 48.8 212.35104ZM50.64375 210.86667Q50.2375 210.86667 49.971874 211.21042Q49.721874 211.55417 49.721874 212.46042Q49.721874 213.27292 49.9875 213.61667Q50.253124 213.96042 50.64375 213.96042Q51.034374 213.96042 51.3 213.61667Q51.565624 213.27292 51.565624 212.36667Q51.565624 211.53854 51.3 211.21042Q51.034374 210.86667 50.64375 210.86667Z" fill-rule="nonzero"/><path fill="#000000" d="M24.51875 146.84062L23.471874 146.91875Q23.33125 146.29375 23.08125 146.0125Q22.64375 145.55937 22.01875 145.55937Q21.51875 145.55937 21.128124 145.84062Q20.64375 146.21562 20.346874 146.91875Q20.065624 147.60625 20.05 148.8875Q20.425 148.30937 20.971874 148.02812Q21.534374 147.74687 22.14375 147.74687Q23.190624 147.74687 23.925 148.52812Q24.675 149.30937 24.675 150.52812Q24.675 151.34062 24.315624 152.04375Q23.971874 152.73125 23.3625 153.10625Q22.753124 153.46562 21.9875 153.46562Q20.659374 153.46562 19.83125 152.49687Q19.003124 151.52812 19.003124 149.30937Q19.003124 146.80937 19.925 145.68437Q20.721874 144.7 22.08125 144.7Q23.096874 144.7 23.7375 145.27812Q24.39375 145.84062 24.51875 146.84062ZM20.221874 150.54375Q20.221874 151.09062 20.440624 151.59062Q20.675 152.075 21.08125 152.34062Q21.503124 152.60625 21.971874 152.60625Q22.628124 152.60625 23.1125 152.075Q23.596874 151.52812 23.596874 150.60625Q23.596874 149.71562 23.1125 149.2Q22.64375 148.68437 21.925 148.68437Q21.20625 148.68437 20.70625 149.2Q20.221874 149.71562 20.221874 150.54375ZM26.64375 153.325L26.64375 152.12187L27.846874 152.12187L27.846874 153.325L26.64375 153.325ZM29.05 149.09062Q29.05 147.55937 29.3625 146.6375Q29.675 145.7 30.284374 145.2Q30.909374 144.7 31.846874 144.7Q32.534374 144.7 33.05 144.98125Q33.58125 145.2625 33.925 145.79375Q34.26875 146.30937 34.45625 147.05937Q34.64375 147.80937 34.64375 149.09062Q34.64375 150.60625 34.33125 151.52812Q34.034374 152.45 33.409374 152.96562Q32.8 153.46562 31.846874 153.46562Q30.6125 153.46562 29.89375 152.575Q29.05 151.5125 29.05 149.09062ZM30.128124 149.09062Q30.128124 151.2 30.628124 151.90312Q31.128124 152.60625 31.846874 152.60625Q32.58125 152.60625 33.065624 151.90312Q33.565624 151.2 33.565624 149.09062Q33.565624 146.96562 33.065624 146.27812Q32.58125 145.575 31.83125 145.575Q31.1125 145.575 30.675 146.18437Q30.128124 146.96562 30.128124 149.09062ZM36.05 149.09062Q36.05 147.55937 36.3625 146.6375Q36.675 145.7 37.284374 145.2Q37.909374 144.7 38.846874 144.7Q39.534374 144.7 40.05 144.98125Q40.58125 145.2625 40.925 145.79375Q41.26875 146.30937 41.45625 147.05937Q41.64375 147.80937 41.64375 149.09062Q41.64375 150.60625 41.33125 151.52812Q41.034374 152.45 40.409374 152.96562Q39.8 153.46562 38.846874 153.46562Q37.6125 153.46562 36.89375 152.575Q36.05 151.5125 36.05 149.09062ZM37.128124 149.09062Q37.128124 151.2 37.628124 151.90312Q38.128124 152.60625 38.846874 152.60625Q39.58125 152.60625 40.065624 151.90312Q40.565624 151.2 40.565624 149.09062Q40.565624 146.96562 40.065624 146.27812Q39.58125 145.575 38.83125 145.575Q38.1125 145.575 37.675 146.18437Q37.128124 146.96562 37.128124 149.09062ZM43.253124 146.79375Q43.253124 145.87187 43.70625 145.23125Q44.175 144.59062 45.05 144.59062Q45.8625 144.59062 46.39375 145.16875Q46.925 145.74687 46.925 146.85625Q46.925 147.95 46.378124 148.54375Q45.846874 149.12187 45.065624 149.12187Q44.284374 149.12187 43.76875 148.54375Q43.253124 147.96562 43.253124 146.79375ZM45.08125 145.30937Q44.690624 145.30937 44.425 145.65312Q44.175 145.99687 44.175 146.90312Q44.175 147.73125 44.425 148.075Q44.690624 148.40312 45.08125 148.40312Q45.4875 148.40312 45.7375 148.05937Q46.003124 147.71562 46.003124 146.825Q46.003124 145.98125 45.7375 145.65312Q45.471874 145.30937 45.08125 145.30937ZM45.08125 153.6375L49.784374 144.59062L50.64375 144.59062L45.95625 153.6375L45.08125 153.6375ZM48.8 151.30937Q48.8 150.3875 49.253124 149.74687Q49.721874 149.10625 50.6125 149.10625Q51.425 149.10625 51.95625 149.68437Q52.4875 150.24687 52.4875 151.37187Q52.4875 152.46562 51.940624 153.05937Q51.409374 153.6375 50.6125 153.6375Q49.846874 153.6375 49.315624 153.05937Q48.8 152.48125 48.8 151.30937ZM50.64375 149.825Q50.2375 149.825 49.971874 150.16875Q49.721874 150.5125 49.721874 151.41875Q49.721874 152.23125 49.9875 152.575Q50.253124 152.91875 50.64375 152.91875Q51.034374 152.91875 51.3 152.575Q51.565624 152.23125 51.565624 151.325Q51.565624 150.49687 51.3 150.16875Q51.034374 149.825 50.64375 149.825Z" fill-rule="nonzero"/><path fill="#000000" d="M20.675 87.62708Q20.01875 87.37708 19.690624 86.93958Q19.378124 86.48646 19.378124 85.87708Q19.378124 84.93958 20.05 84.29896Q20.7375 83.65833 21.846874 83.65833Q22.971874 83.65833 23.659374 84.31458Q24.346874 84.97083 24.346874 85.90833Q24.346874 86.50208 24.034374 86.93958Q23.721874 87.37708 23.08125 87.62708Q23.878124 87.87708 24.284374 88.45521Q24.690624 89.03333 24.690624 89.83021Q24.690624 90.92396 23.909374 91.67396Q23.14375 92.42396 21.8625 92.42396Q20.596874 92.42396 19.815624 91.67396Q19.034374 90.92396 19.034374 89.79896Q19.034374 88.95521 19.45625 88.39271Q19.89375 87.83021 20.675 87.62708ZM20.45625 85.83021Q20.45625 86.43958 20.846874 86.83021Q21.253124 87.22083 21.878124 87.22083Q22.4875 87.22083 22.878124 86.84583Q23.26875 86.45521 23.26875 85.89271Q23.26875 85.31458 22.8625 84.92396Q22.45625 84.51771 21.8625 84.51771Q21.253124 84.51771 20.846874 84.90833Q20.45625 85.29896 20.45625 85.83021ZM20.128124 89.79896Q20.128124 90.25208 20.33125 90.67396Q20.55 91.09583 20.971874 91.33021Q21.39375 91.56458 21.878124 91.56458Q22.628124 91.56458 23.1125 91.08021Q23.6125 90.59583 23.6125 89.84583Q23.6125 89.08021 23.1125 88.58021Q22.6125 88.08021 21.846874 88.08021Q21.096874 88.08021 20.6125 88.58021Q20.128124 89.06458 20.128124 89.79896ZM26.64375 92.28333L26.64375 91.08021L27.846874 91.08021L27.846874 92.28333L26.64375 92.28333ZM29.05 88.04896Q29.05 86.51771 29.3625 85.59583Q29.675 84.65833 30.284374 84.15833Q30.909374 83.65833 31.846874 83.65833Q32.534374 83.65833 33.05 83.93958Q33.58125 84.22083 33.925 84.75208Q34.26875 85.26771 34.45625 86.01771Q34.64375 86.76771 34.64375 88.04896Q34.64375 89.56458 34.33125 90.48646Q34.034374 91.40833 33.409374 91.92396Q32.8 92.42396 31.846874 92.42396Q30.6125 92.42396 29.89375 91.53333Q29.05 90.47083 29.05 88.04896ZM30.128124 88.04896Q30.128124 90.15833 30.628124 90.86146Q31.128124 91.56458 31.846874 91.56458Q32.58125 91.56458 33.065624 90.86146Q33.565624 90.15833 33.565624 88.04896Q33.565624 85.92396 33.065624 85.23646Q32.58125 84.53333 31.83125 84.53333Q31.1125 84.53333 30.675 85.14271Q30.128124 85.92396 30.128124 88.04896ZM36.05 88.04896Q36.05 86.51771 36.3625 85.59583Q36.675 84.65833 37.284374 84.15833Q37.909374 83.65833 38.846874 83.65833Q39.534374 83.65833 40.05 83.93958Q40.58125 84.22083 40.925 84.75208Q41.26875 85.26771 41.45625 86.01771Q41.64375 86.76771 41.64375 88.04896Q41.64375 89.56458 41.33125 90.48646Q41.034374 91.40833 40.409374 91.92396Q39.8 92.42396 38.846874 92.42396Q37.6125 92.42396 36.89375 91.53333Q36.05 90.47083 36.05 88.04896ZM37.128124 88.04896Q37.128124 90.15833 37.628124 90.86146Q38.128124 91.56458 38.846874 91.56458Q39.58125 91.56458 40.065624 90.86146Q40.565624 90.15833 40.565624 88.04896Q40.565624 85.92396 40.065624 85.23646Q39.58125 84.53333 38.83125 84.53333Q38.1125 84.53333 37.675 85.14271Q37.128124 85.92396 37.128124 88.04896ZM43.253124 85.75208Q43.253124 84.83021 43.70625 84.18958Q44.175 83.54896 45.05 83.54896Q45.8625 83.54896 46.39375 84.12708Q46.925 84.70521 46.925 85.81458Q46.925 86.90833 46.378124 87.50208Q45.846874 88.08021 45.065624 88.08021Q44.284374 88.08021 43.76875 87.50208Q43.253124 86.92396 43.253124 85.75208ZM45.08125 84.26771Q44.690624 84.26771 44.425 84.61146Q44.175 84.95521 44.175 85.86146Q44.175 86.68958 44.425 87.03333Q44.690624 87.36146 45.08125 87.36146Q45.4875 87.36146 45.7375 87.01771Q46.003124 86.67396 46.003124 85.78333Q46.003124 84.93958 45.7375 84.61146Q45.471874 84.26771 45.08125 84.26771ZM45.08125 92.59583L49.784374 83.54896L50.64375 83.54896L45.95625 92.59583L45.08125 92.59583ZM48.8 90.26771Q48.8 89.34583 49.253124 88.70521Q49.721874 88.06458 50.6125 88.06458Q51.425 88.06458 51.95625 88.64271Q52.4875 89.20521 52.4875 90.33021Q52.4875 91.42396 51.940624 92.01771Q51.409374 92.59583 50.6125 92.59583Q49.846874 92.59583 49.315624 92.01771Q48.8 91.43958 48.8 90.26771ZM50.64375 88.78333Q50.2375 88.78333 49.971874 89.12708Q49.721874 89.47083 49.721874 90.37708Q49.721874 91.18958 49.9875 91.53333Q50.253124 91.87708 50.64375 91.87708Q51.034374 91.87708 51.3 91.53333Q51.565624 91.18958 51.565624 90.28333Q51.565624 89.45521 51.3 89.12708Q51.034374 88.78333 50.64375 88.78333Z" fill-rule="nonzero"/><path fill="#000000" d="M44.55 347.1844L45.6125 347.04376Q45.784374 347.9344 46.221874 348.34064Q46.659374 348.73126 47.284374 348.73126Q48.034374 348.73126 48.55 348.21564Q49.065624 347.7 49.065624 346.9344Q49.065624 346.21564 48.58125 345.7469Q48.1125 345.2625 47.378124 345.2625Q47.08125 345.2625 46.628124 345.3875L46.753124 344.45Q46.8625 344.46564 46.925 344.46564Q47.596874 344.46564 48.128124 344.1219Q48.675 343.7625 48.675 343.02814Q48.675 342.45 48.284374 342.075Q47.89375 341.6844 47.26875 341.6844Q46.659374 341.6844 46.2375 342.075Q45.83125 342.46564 45.721874 343.23126L44.659374 343.04376Q44.846874 341.9969 45.534374 341.41876Q46.221874 340.825 47.2375 340.825Q47.940624 340.825 48.534374 341.1375Q49.128124 341.4344 49.440624 341.95Q49.753124 342.46564 49.753124 343.0594Q49.753124 343.60626 49.45625 344.075Q49.159374 344.52814 48.58125 344.79376Q49.33125 344.96564 49.753124 345.52814Q50.175 346.075 50.175 346.91876Q50.175 348.04376 49.346874 348.825Q48.534374 349.60626 47.284374 349.60626Q46.159374 349.60626 45.409374 348.9344Q44.659374 348.2469 44.55 347.1844ZM51.55 347.1844L52.6125 347.04376Q52.784374 347.9344 53.221874 348.34064Q53.659374 348.73126 54.284374 348.73126Q55.034374 348.73126 55.55 348.21564Q56.065624 347.7 56.065624 346.9344Q56.065624 346.21564 55.58125 345.7469Q55.1125 345.2625 54.378124 345.2625Q54.08125 345.2625 53.628124 345.3875L53.753124 344.45Q53.8625 344.46564 53.925 344.46564Q54.596874 344.46564 55.128124 344.1219Q55.675 343.7625 55.675 343.02814Q55.675 342.45 55.284374 342.075Q54.89375 341.6844 54.26875 341.6844Q53.659374 341.6844 53.2375 342.075Q52.83125 342.46564 52.721874 343.23126L51.659374 343.04376Q51.846874 341.9969 52.534374 341.41876Q53.221874 340.825 54.2375 340.825Q54.940624 340.825 55.534374 341.1375Q56.128124 341.4344 56.440624 341.95Q56.753124 342.46564 56.753124 343.0594Q56.753124 343.60626 56.45625 344.075Q56.159374 344.52814 55.58125 344.79376Q56.33125 344.96564 56.753124 345.52814Q57.175 346.075 57.175 346.91876Q57.175 348.04376 56.346874 348.825Q55.534374 349.60626 54.284374 349.60626Q53.159374 349.60626 52.409374 348.9344Q51.659374 348.2469 51.55 347.1844ZM62.909374 347.16876L63.940624 347.3094Q63.76875 348.3719 63.065624 348.98126Q62.3625 349.59064 61.346874 349.59064Q60.065624 349.59064 59.284374 348.7625Q58.51875 347.91876 58.51875 346.35626Q58.51875 345.35626 58.846874 344.60626Q59.190624 343.84064 59.8625 343.46564Q60.55 343.09064 61.3625 343.09064Q62.3625 343.09064 63.003124 343.60626Q63.659374 344.10626 63.846874 345.0594L62.815624 345.21564Q62.675 344.59064 62.3 344.27814Q61.925 343.95 61.39375 343.95Q60.596874 343.95 60.096874 344.52814Q59.596874 345.09064 59.596874 346.325Q59.596874 347.59064 60.08125 348.15314Q60.565624 348.71564 61.33125 348.71564Q61.95625 348.71564 62.3625 348.34064Q62.784374 347.96564 62.909374 347.16876ZM64.84688 349.45L64.84688 343.23126L65.78438 343.23126L65.78438 344.10626Q66.08125 343.6375 66.56563 343.3719Q67.05 343.09064 67.675 343.09064Q68.3625 343.09064 68.8 343.3719Q69.25313 343.65314 69.425 344.16876Q70.175 343.09064 71.34688 343.09064Q72.28438 343.09064 72.76875 343.60626Q73.26875 344.10626 73.26875 345.1844L73.26875 349.45L72.22188 349.45L72.22188 345.52814Q72.22188 344.90314 72.1125 344.6219Q72.01875 344.34064 71.75313 344.16876Q71.4875 343.9969 71.1125 343.9969Q70.45625 343.9969 70.01875 344.4344Q69.59688 344.8719 69.59688 345.84064L69.59688 349.45L68.53438 349.45L68.53438 345.40314Q68.53438 344.7 68.26875 344.35626Q68.01875 343.9969 67.44063 343.9969Q66.9875 343.9969 66.6125 344.23126Q66.2375 344.46564 66.06563 344.91876Q65.89375 345.3719 65.89375 346.21564L65.89375 349.45L64.84688 349.45Z" fill-rule="nonzero"/><path fill="#000000" d="M310.96875 342.96564L309.92188 343.04376Q309.78125 342.41876 309.53125 342.1375Q309.09375 341.6844 308.46875 341.6844Q307.96875 341.6844 307.57812 341.96564Q307.09375 342.34064 306.79688 343.04376Q306.51562 343.73126 306.5 345.0125Q306.875 344.4344 307.42188 344.15314Q307.98438 343.8719 308.59375 343.8719Q309.64062 343.8719 310.375 344.65314Q311.125 345.4344 311.125 346.65314Q311.125 347.46564 310.76562 348.16876Q310.42188 348.85626 309.8125 349.23126Q309.20312 349.59064 308.4375 349.59064Q307.10938 349.59064 306.28125 348.6219Q305.45312 347.65314 305.45312 345.4344Q305.45312 342.9344 306.375 341.8094Q307.17188 340.825 308.53125 340.825Q309.54688 340.825 310.1875 341.40314Q310.84375 341.96564 310.96875 342.96564ZM306.67188 346.66876Q306.67188 347.21564 306.89062 347.71564Q307.125 348.2 307.53125 348.46564Q307.95312 348.73126 308.42188 348.73126Q309.07812 348.73126 309.5625 348.2Q310.04688 347.65314 310.04688 346.73126Q310.04688 345.84064 309.5625 345.325Q309.09375 344.8094 308.375 344.8094Q307.65625 344.8094 307.15625 345.325Q306.67188 345.84064 306.67188 346.66876ZM317.96875 342.96564L316.92188 343.04376Q316.78125 342.41876 316.53125 342.1375Q316.09375 341.6844 315.46875 341.6844Q314.96875 341.6844 314.57812 341.96564Q314.09375 342.34064 313.79688 343.04376Q313.51562 343.73126 313.5 345.0125Q313.875 344.4344 314.42188 344.15314Q314.98438 343.8719 315.59375 343.8719Q316.64062 343.8719 317.375 344.65314Q318.125 345.4344 318.125 346.65314Q318.125 347.46564 317.76562 348.16876Q317.42188 348.85626 316.8125 349.23126Q316.20312 349.59064 315.4375 349.59064Q314.10938 349.59064 313.28125 348.6219Q312.45312 347.65314 312.45312 345.4344Q312.45312 342.9344 313.375 341.8094Q314.17188 340.825 315.53125 340.825Q316.54688 340.825 317.1875 341.40314Q317.84375 341.96564 317.96875 342.96564ZM313.67188 346.66876Q313.67188 347.21564 313.89062 347.71564Q314.125 348.2 314.53125 348.46564Q314.95312 348.73126 315.42188 348.73126Q316.07812 348.73126 316.5625 348.2Q317.04688 347.65314 317.04688 346.73126Q317.04688 345.84064 316.5625 345.325Q316.09375 344.8094 315.375 344.8094Q314.65625 344.8094 314.15625 345.325Q313.67188 345.84064 313.67188 346.66876ZM323.85938 347.16876L324.89062 347.3094Q324.71875 348.3719 324.01562 348.98126Q323.3125 349.59064 322.29688 349.59064Q321.01562 349.59064 320.23438 348.7625Q319.46875 347.91876 319.46875 346.35626Q319.46875 345.35626 319.79688 344.60626Q320.14062 343.84064 320.8125 343.46564Q321.5 343.09064 322.3125 343.09064Q323.3125 343.09064 323.95312 343.60626Q324.60938 344.10626 324.79688 345.0594L323.76562 345.21564Q323.625 344.59064 323.25 344.27814Q322.875 343.95 322.34375 343.95Q321.54688 343.95 321.04688 344.52814Q320.54688 345.09064 320.54688 346.325Q320.54688 347.59064 321.03125 348.15314Q321.51562 348.71564 322.28125 348.71564Q322.90625 348.71564 323.3125 348.34064Q323.73438 347.96564 323.85938 347.16876ZM325.79688 349.45L325.79688 343.23126L326.73438 343.23126L326.73438 344.10626Q327.03125 343.6375 327.51562 343.3719Q328.0 343.09064 328.625 343.09064Q329.3125 343.09064 329.75 343.3719Q330.20312 343.65314 330.375 344.16876Q331.125 343.09064 332.29688 343.09064Q333.23438 343.09064 333.71875 343.60626Q334.21875 344.10626 334.21875 345.1844L334.21875 349.45L333.17188 349.45L333.17188 345.52814Q333.17188 344.90314 333.0625 344.6219Q332.96875 344.34064 332.70312 344.16876Q332.4375 343.9969 332.0625 343.9969Q331.40625 343.9969 330.96875 344.4344Q330.54688 344.8719 330.54688 345.84064L330.54688 349.45L329.48438 349.45L329.48438 345.40314Q329.48438 344.7 329.21875 344.35626Q328.96875 343.9969 328.39062 343.9969Q327.9375 343.9969 327.5625 344.23126Q327.1875 344.46564 327.01562 344.91876Q326.84375 345.3719 326.84375 346.21564L326.84375 349.45L325.79688 349.45Z" fill-rule="nonzero"/><path fill="#000000" d="M566.60626 347.46564L567.6219 347.3719Q567.7469 348.09064 568.10626 348.41876Q568.48126 348.73126 569.04376 348.73126Q569.52814 348.73126 569.8875 348.5125Q570.2625 348.27814 570.4969 347.91876Q570.73126 347.54376 570.8875 346.91876Q571.04376 346.27814 571.04376 345.6219Q571.04376 345.54376 571.04376 345.40314Q570.73126 345.90314 570.1844 346.23126Q569.6375 346.54376 568.9969 346.54376Q567.91876 346.54376 567.1844 345.77814Q566.45 344.9969 566.45 343.73126Q566.45 342.41876 567.21564 341.6219Q567.9969 340.825 569.15314 340.825Q569.98126 340.825 570.66876 341.27814Q571.3719 341.73126 571.73126 342.575Q572.09064 343.40314 572.09064 344.98126Q572.09064 346.6219 571.73126 347.60626Q571.3875 348.575 570.66876 349.09064Q569.96564 349.59064 569.02814 349.59064Q568.0125 349.59064 567.3719 349.04376Q566.73126 348.48126 566.60626 347.46564ZM570.91876 343.66876Q570.91876 342.7625 570.4344 342.23126Q569.96564 341.7 569.27814 341.7Q568.575 341.7 568.04376 342.27814Q567.52814 342.84064 567.52814 343.7625Q567.52814 344.575 568.02814 345.09064Q568.52814 345.60626 569.2469 345.60626Q569.98126 345.60626 570.45 345.09064Q570.91876 344.575 570.91876 343.66876ZM573.60626 347.46564L574.6219 347.3719Q574.7469 348.09064 575.10626 348.41876Q575.48126 348.73126 576.04376 348.73126Q576.52814 348.73126 576.8875 348.5125Q577.2625 348.27814 577.4969 347.91876Q577.73126 347.54376 577.8875 346.91876Q578.04376 346.27814 578.04376 345.6219Q578.04376 345.54376 578.04376 345.40314Q577.73126 345.90314 577.1844 346.23126Q576.6375 346.54376 575.9969 346.54376Q574.91876 346.54376 574.1844 345.77814Q573.45 344.9969 573.45 343.73126Q573.45 342.41876 574.21564 341.6219Q574.9969 340.825 576.15314 340.825Q576.98126 340.825 577.66876 341.27814Q578.3719 341.73126 578.73126 342.575Q579.09064 343.40314 579.09064 344.98126Q579.09064 346.6219 578.73126 347.60626Q578.3875 348.575 577.66876 349.09064Q576.96564 349.59064 576.02814 349.59064Q575.0125 349.59064 574.3719 349.04376Q573.73126 348.48126 573.60626 347.46564ZM577.91876 343.66876Q577.91876 342.7625 577.4344 342.23126Q576.96564 341.7 576.27814 341.7Q575.575 341.7 575.04376 342.27814Q574.52814 342.84064 574.52814 343.7625Q574.52814 344.575 575.02814 345.09064Q575.52814 345.60626 576.2469 345.60626Q576.98126 345.60626 577.45 345.09064Q577.91876 344.575 577.91876 343.66876ZM584.8094 347.16876L585.84064 347.3094Q585.66876 348.3719 584.96564 348.98126Q584.2625 349.59064 583.2469 349.59064Q581.96564 349.59064 581.1844 348.7625Q580.41876 347.91876 580.41876 346.35626Q580.41876 345.35626 580.7469 344.60626Q581.09064 343.84064 581.7625 343.46564Q582.45 343.09064 583.2625 343.09064Q584.2625 343.09064 584.90314 343.60626Q585.5594 344.10626 585.7469 345.0594L584.71564 345.21564Q584.575 344.59064 584.2 344.27814Q583.825 343.95 583.29376 343.95Q582.4969 343.95 581.9969 344.52814Q581.4969 345.09064 581.4969 346.325Q581.4969 347.59064 581.98126 348.15314Q582.46564 348.71564 583.23126 348.71564Q583.85626 348.71564 584.2625 348.34064Q584.6844 347.96564 584.8094 347.16876ZM586.7469 349.45L586.7469 343.23126L587.6844 343.23126L587.6844 344.10626Q587.98126 343.6375 588.46564 343.3719Q588.95 343.09064 589.575 343.09064Q590.2625 343.09064 590.7 343.3719Q591.15314 343.65314 591.325 344.16876Q592.075 343.09064 593.2469 343.09064Q594.1844 343.09064 594.66876 343.60626Q595.16876 344.10626 595.16876 345.1844L595.16876 349.45L594.1219 349.45L594.1219 345.52814Q594.1219 344.90314 594.0125 344.6219Q593.91876 344.34064 593.65314 344.16876Q593.3875 343.9969 593.0125 343.9969Q592.35626 343.9969 591.91876 344.4344Q591.4969 344.8719 591.4969 345.84064L591.4969 349.45L590.4344 349.45L590.4344 345.40314Q590.4344 344.7 590.16876 344.35626Q589.91876 343.9969 589.34064 343.9969Q588.8875 343.9969 588.5125 344.23126Q588.1375 344.46564 587.96564 344.91876Q587.79376 345.3719 587.79376 346.21564L587.79376 349.45L586.7469 349.45Z" fill-rule="nonzero"/><path fill="#4285f4" d="M145.0 56.916668C145.0 56.364384 145.44771 55.916668 146.0 55.916668L156.0 55.916668C156.55229 55.916668 157.0 56.364384 157.0 56.916668L157.0 66.916664C157.0 67.46895 156.55229 67.916664 156.0 67.916664L146.0 67.916664C145.44771 67.916664 145.0 67.46895 145.0 66.916664Z" fill-rule="nonzero"/><path fill="#1a1a1a" d="M164.98438 65.916664L168.28125 57.322914L169.5 57.322914L173.01562 65.916664L171.73438 65.916664L170.71875 63.30729L167.14062 63.30729L166.1875 65.916664L164.98438 65.916664ZM167.46875 62.385414L170.375 62.385414L169.48438 60.010414Q169.0625 58.93229 168.875 58.229164Q168.70312 59.05729 168.40625 59.86979L167.46875 62.385414ZM172.78125 65.916664L172.78125 59.697914L173.73438 59.697914L173.73438 60.635414Q174.09375 59.979164 174.39062 59.77604Q174.70312 59.55729 175.07812 59.55729Q175.60938 59.55729 176.15625 59.885414L175.79688 60.86979Q175.40625 60.635414 175.03125 60.635414Q174.67188 60.635414 174.39062 60.854164Q174.125 61.05729 174.01562 61.43229Q173.82812 61.99479 173.82812 62.65104L173.82812 65.916664L172.78125 65.916664ZM181.04688 63.916664L182.14062 64.041664Q181.89062 64.99479 181.1875 65.52604Q180.48438 66.05729 179.40625 66.05729Q178.04688 66.05729 177.23438 65.21354Q176.4375 64.36979 176.4375 62.854164Q176.4375 61.291664 177.25 60.43229Q178.0625 59.55729 179.34375 59.55729Q180.59375 59.55729 181.375 60.40104Q182.17188 61.24479 182.17188 62.791664Q182.17188 62.885414 182.17188 63.072914L177.53125 63.072914Q177.59375 64.104164 178.10938 64.65104Q178.625 65.18229 179.40625 65.18229Q179.98438 65.18229 180.39062 64.885414Q180.8125 64.572914 181.04688 63.916664ZM177.59375 62.21354L181.0625 62.21354Q181.0 61.416664 180.67188 61.02604Q180.15625 60.416664 179.35938 60.416664Q178.625 60.416664 178.125 60.90104Q177.64062 61.385414 177.59375 62.21354ZM187.85938 65.15104Q187.26562 65.65104 186.71875 65.854164Q186.1875 66.05729 185.5625 66.05729Q184.53125 66.05729 183.98438 65.55729Q183.4375 65.05729 183.4375 64.27604Q183.4375 63.822914 183.64062 63.447914Q183.84375 63.05729 184.1875 62.83854Q184.53125 62.604164 184.95312 62.49479Q185.25 62.40104 185.89062 62.322914Q187.15625 62.18229 187.76562 61.96354Q187.76562 61.74479 187.76562 61.697914Q187.76562 61.041664 187.46875 60.77604Q187.0625 60.43229 186.26562 60.43229Q185.53125 60.43229 185.17188 60.697914Q184.8125 60.947914 184.64062 61.604164L183.60938 61.46354Q183.75 60.80729 184.07812 60.40104Q184.40625 59.99479 185.01562 59.77604Q185.625 59.55729 186.42188 59.55729Q187.21875 59.55729 187.71875 59.74479Q188.21875 59.93229 188.45312 60.21354Q188.6875 60.49479 188.78125 60.93229Q188.82812 61.197914 188.82812 61.90104L188.82812 63.30729Q188.82812 64.77604 188.89062 65.166664Q188.96875 65.55729 189.17188 65.916664L188.0625 65.916664Q187.90625 65.58854 187.85938 65.15104ZM187.76562 62.791664Q187.1875 63.02604 186.04688 63.197914Q185.39062 63.291664 185.125 63.416664Q184.85938 63.52604 184.70312 63.74479Q184.5625 63.96354 184.5625 64.24479Q184.5625 64.666664 184.875 64.947914Q185.20312 65.229164 185.8125 65.229164Q186.42188 65.229164 186.89062 64.96354Q187.375 64.697914 187.59375 64.229164Q187.76562 63.86979 187.76562 63.18229L187.76562 62.791664ZM199.5625 57.322914L200.70312 57.322914L200.70312 62.291664Q200.70312 63.58854 200.40625 64.354164Q200.10938 65.104164 199.34375 65.58854Q198.57812 66.05729 197.34375 66.05729Q196.14062 66.05729 195.35938 65.65104Q194.59375 65.229164 194.26562 64.447914Q193.9375 63.65104 193.9375 62.291664L193.9375 57.322914L195.07812 57.322914L195.07812 62.27604Q195.07812 63.40104 195.28125 63.93229Q195.5 64.46354 196.0 64.760414Q196.51562 65.041664 197.25 65.041664Q198.5 65.041664 199.03125 64.479164Q199.5625 63.90104 199.5625 62.27604L199.5625 57.322914ZM202.79688 65.916664L202.79688 59.697914L203.73438 59.697914L203.73438 60.572914Q204.42188 59.55729 205.71875 59.55729Q206.28125 59.55729 206.75 59.760414Q207.23438 59.96354 207.46875 60.291664Q207.70312 60.61979 207.79688 61.05729Q207.84375 61.354164 207.84375 62.08854L207.84375 65.916664L206.79688 65.916664L206.79688 62.135414Q206.79688 61.479164 206.67188 61.166664Q206.54688 60.854164 206.23438 60.666664Q205.92188 60.46354 205.5 60.46354Q204.82812 60.46354 204.32812 60.90104Q203.84375 61.322914 203.84375 62.510414L203.84375 65.916664L202.79688 65.916664ZM213.82812 65.916664L213.82812 65.135414Q213.23438 66.05729 212.09375 66.05729Q211.34375 66.05729 210.71875 65.65104Q210.09375 65.229164 209.75 64.49479Q209.40625 63.760414 209.40625 62.80729Q209.40625 61.885414 209.71875 61.11979Q210.03125 60.354164 210.65625 59.96354Q211.28125 59.55729 212.04688 59.55729Q212.60938 59.55729 213.04688 59.791664Q213.48438 60.02604 213.76562 60.40104L213.76562 57.322914L214.8125 57.322914L214.8125 65.916664L213.82812 65.916664ZM210.5 62.80729Q210.5 64.010414 211.0 64.604164Q211.5 65.18229 212.1875 65.18229Q212.875 65.18229 213.35938 64.61979Q213.84375 64.05729 213.84375 62.90104Q213.84375 61.61979 213.34375 61.02604Q212.85938 60.43229 212.14062 60.43229Q211.4375 60.43229 210.96875 61.010414Q210.5 61.572914 210.5 62.80729ZM221.04688 63.916664L222.14062 64.041664Q221.89062 64.99479 221.1875 65.52604Q220.48438 66.05729 219.40625 66.05729Q218.04688 66.05729 217.23438 65.21354Q216.4375 64.36979 216.4375 62.854164Q216.4375 61.291664 217.25 60.43229Q218.0625 59.55729 219.34375 59.55729Q220.59375 59.55729 221.375 60.40104Q222.17188 61.24479 222.17188 62.791664Q222.17188 62.885414 222.17188 63.072914L217.53125 63.072914Q217.59375 64.104164 218.10938 64.65104Q218.625 65.18229 219.40625 65.18229Q219.98438 65.18229 220.39062 64.885414Q220.8125 64.572914 221.04688 63.916664ZM217.59375 62.21354L221.0625 62.21354Q221.0 61.416664 220.67188 61.02604Q220.15625 60.416664 219.35938 60.416664Q218.625 60.416664 218.125 60.90104Q217.64062 61.385414 217.59375 62.21354ZM223.78125 65.916664L223.78125 59.697914L224.73438 59.697914L224.73438 60.635414Q225.09375 59.979164 225.39062 59.77604Q225.70312 59.55729 226.07812 59.55729Q226.60938 59.55729 227.15625 59.885414L226.79688 60.86979Q226.40625 60.635414 226.03125 60.635414Q225.67188 60.635414 225.39062 60.854164Q225.125 61.05729 225.01562 61.43229Q224.82812 61.99479 224.82812 62.65104L224.82812 65.916664L223.78125 65.916664ZM228.9375 65.916664L227.03125 59.697914L228.125 59.697914L229.10938 63.291664L229.48438 64.61979Q229.51562 64.52604 229.8125 63.33854L230.79688 59.697914L231.875 59.697914L232.8125 63.30729L233.125 64.49479L233.48438 63.291664L234.54688 59.697914L235.57812 59.697914L233.625 65.916664L232.53125 65.916664L231.54688 62.18229L231.29688 61.135414L230.04688 65.916664L228.9375 65.916664ZM240.85938 65.15104Q240.26562 65.65104 239.71875 65.854164Q239.1875 66.05729 238.5625 66.05729Q237.53125 66.05729 236.98438 65.55729Q236.4375 65.05729 236.4375 64.27604Q236.4375 63.822914 236.64062 63.447914Q236.84375 63.05729 237.1875 62.83854Q237.53125 62.604164 237.95312 62.49479Q238.25 62.40104 238.89062 62.322914Q240.15625 62.18229 240.76562 61.96354Q240.76562 61.74479 240.76562 61.697914Q240.76562 61.041664 240.46875 60.77604Q240.0625 60.43229 239.26562 60.43229Q238.53125 60.43229 238.17188 60.697914Q237.8125 60.947914 237.64062 61.604164L236.60938 61.46354Q236.75 60.80729 237.07812 60.40104Q237.40625 59.99479 238.01562 59.77604Q238.625 59.55729 239.42188 59.55729Q240.21875 59.55729 240.71875 59.74479Q241.21875 59.93229 241.45312 60.21354Q241.6875 60.49479 241.78125 60.93229Q241.82812 61.197914 241.82812 61.90104L241.82812 63.30729Q241.82812 64.77604 241.89062 65.166664Q241.96875 65.55729 242.17188 65.916664L241.0625 65.916664Q240.90625 65.58854 240.85938 65.15104ZM240.76562 62.791664Q240.1875 63.02604 239.04688 63.197914Q238.39062 63.291664 238.125 63.416664Q237.85938 63.52604 237.70312 63.74479Q237.5625 63.96354 237.5625 64.24479Q237.5625 64.666664 237.875 64.947914Q238.20312 65.229164 238.8125 65.229164Q239.42188 65.229164 239.89062 64.96354Q240.375 64.697914 240.59375 64.229164Q240.76562 63.86979 240.76562 63.18229L240.76562 62.791664ZM246.09375 64.979164L246.25 65.90104Q245.79688 65.99479 245.45312 65.99479Q244.875 65.99479 244.5625 65.822914Q244.25 65.635414 244.10938 65.33854Q243.98438 65.041664 243.98438 64.08854L243.98438 60.510414L243.21875 60.510414L243.21875 59.697914L243.98438 59.697914L243.98438 58.15104L245.03125 57.52604L245.03125 59.697914L246.09375 59.697914L246.09375 60.510414L245.03125 60.510414L245.03125 64.15104Q245.03125 64.604164 245.07812 64.729164Q245.14062 64.854164 245.26562 64.93229Q245.39062 65.010414 245.625 65.010414Q245.8125 65.010414 246.09375 64.979164ZM251.04688 63.916664L252.14062 64.041664Q251.89062 64.99479 251.1875 65.52604Q250.48438 66.05729 249.40625 66.05729Q248.04688 66.05729 247.23438 65.21354Q246.4375 64.36979 246.4375 62.854164Q246.4375 61.291664 247.25 60.43229Q248.0625 59.55729 249.34375 59.55729Q250.59375 59.55729 251.375 60.40104Q252.17188 61.24479 252.17188 62.791664Q252.17188 62.885414 252.17188 63.072914L247.53125 63.072914Q247.59375 64.104164 248.10938 64.65104Q248.625 65.18229 249.40625 65.18229Q249.98438 65.18229 250.39062 64.885414Q250.8125 64.572914 251.04688 63.916664ZM247.59375 62.21354L251.0625 62.21354Q251.0 61.416664 250.67188 61.02604Q250.15625 60.416664 249.35938 60.416664Q248.625 60.416664 248.125 60.90104Q247.64062 61.385414 247.59375 62.21354ZM253.78125 65.916664L253.78125 59.697914L254.73438 59.697914L254.73438 60.635414Q255.09375 59.979164 255.39062 59.77604Q255.70312 59.55729 256.07812 59.55729Q256.60938 59.55729 257.15625 59.885414L256.79688 60.86979Q256.40625 60.635414 256.03125 60.635414Q255.67188 60.635414 255.39062 60.854164Q255.125 61.05729 255.01562 61.43229Q254.82812 61.99479 254.82812 62.65104L254.82812 65.916664L253.78125 65.916664ZM262.8125 68.447914Q261.9375 67.33854 261.32812 65.86979Q260.73438 64.385414 260.73438 62.80729Q260.73438 61.416664 261.17188 60.135414Q261.70312 58.65104 262.8125 57.18229L263.5625 57.18229Q262.85938 58.40104 262.625 58.916664Q262.26562 59.729164 262.0625 60.604164Q261.8125 61.697914 261.8125 62.80729Q261.8125 65.635414 263.5625 68.447914L262.8125 68.447914ZM264.70312 59.385414Q264.70312 58.46354 265.15625 57.822914Q265.625 57.18229 266.5 57.18229Q267.3125 57.18229 267.84375 57.760414Q268.375 58.33854 268.375 59.447914Q268.375 60.541664 267.82812 61.135414Q267.29688 61.71354 266.51562 61.71354Q265.73438 61.71354 265.21875 61.135414Q264.70312 60.55729 264.70312 59.385414ZM266.53125 57.90104Q266.14062 57.90104 265.875 58.24479Q265.625 58.58854 265.625 59.49479Q265.625 60.322914 265.875 60.666664Q266.14062 60.99479 266.53125 60.99479Q266.9375 60.99479 267.1875 60.65104Q267.45312 60.30729 267.45312 59.416664Q267.45312 58.572914 267.1875 58.24479Q266.92188 57.90104 266.53125 57.90104ZM266.53125 66.229164L271.23438 57.18229L272.09375 57.18229L267.40625 66.229164L266.53125 66.229164ZM270.25 63.90104Q270.25 62.979164 270.70312 62.33854Q271.17188 61.697914 272.0625 61.697914Q272.875 61.697914 273.40625 62.27604Q273.9375 62.83854 273.9375 63.96354Q273.9375 65.05729 273.39062 65.65104Q272.85938 66.229164 272.0625 66.229164Q271.29688 66.229164 270.76562 65.65104Q270.25 65.072914 270.25 63.90104ZM272.09375 62.416664Q271.6875 62.416664 271.42188 62.760414Q271.17188 63.104164 271.17188 64.010414Q271.17188 64.822914 271.4375 65.166664Q271.70312 65.510414 272.09375 65.510414Q272.48438 65.510414 272.75 65.166664Q273.01562 64.822914 273.01562 63.916664Q273.01562 63.08854 272.75 62.760414Q272.48438 62.416664 272.09375 62.416664ZM276.48438 68.447914L275.73438 68.447914Q277.48438 65.635414 277.48438 62.80729Q277.48438 61.71354 277.23438 60.61979Q277.03125 59.74479 276.67188 58.93229Q276.4375 58.416664 275.73438 57.18229L276.48438 57.18229Q277.57812 58.65104 278.10938 60.135414Q278.5625 61.416664 278.5625 62.80729Q278.5625 64.385414 277.95312 65.86979Q277.34375 67.33854 276.48438 68.447914Z" fill-rule="nonzero"/><path fill="#ea4335" d="M295.0 56.916668C295.0 56.364384 295.44772 55.916668 296.0 55.916668L306.0 55.916668C306.55228 55.916668 307.0 56.364384 307.0 56.916668L307.0 66.916664C307.0 67.46895 306.55228 67.916664 306.0 67.916664L296.0 67.916664C295.44772 67.916664 295.0 67.46895 295.0 66.916664Z" fill-rule="nonzero"/><path fill="#1a1a1a" d="M315.92188 65.916664L315.92188 57.322914L319.17188 57.322914Q320.01562 57.322914 320.46875 57.40104Q321.10938 57.510414 321.53125 57.80729Q321.96875 58.104164 322.21875 58.635414Q322.48438 59.166664 322.48438 59.80729Q322.48438 60.90104 321.78125 61.666664Q321.09375 62.416664 319.26562 62.416664L317.0625 62.416664L317.0625 65.916664L315.92188 65.916664ZM317.0625 61.416664L319.28125 61.416664Q320.39062 61.416664 320.84375 61.010414Q321.3125 60.58854 321.3125 59.83854Q321.3125 59.30729 321.03125 58.93229Q320.76562 58.541664 320.32812 58.416664Q320.03125 58.33854 319.26562 58.33854L317.0625 58.33854L317.0625 61.416664ZM323.40625 62.80729Q323.40625 61.072914 324.35938 60.24479Q325.15625 59.55729 326.3125 59.55729Q327.59375 59.55729 328.40625 60.40104Q329.23438 61.229164 329.23438 62.71354Q329.23438 63.916664 328.875 64.604164Q328.51562 65.291664 327.8125 65.68229Q327.125 66.05729 326.3125 66.05729Q325.01562 66.05729 324.20312 65.229164Q323.40625 64.385414 323.40625 62.80729ZM324.48438 62.80729Q324.48438 63.99479 325.0 64.58854Q325.53125 65.18229 326.3125 65.18229Q327.10938 65.18229 327.625 64.58854Q328.14062 63.99479 328.14062 62.77604Q328.14062 61.61979 327.60938 61.02604Q327.09375 60.43229 326.3125 60.43229Q325.53125 60.43229 325.0 61.02604Q324.48438 61.604164 324.48438 62.80729ZM330.79688 68.30729L330.79688 59.697914L331.75 59.697914L331.75 60.49479Q332.09375 60.02604 332.51562 59.791664Q332.95312 59.55729 333.5625 59.55729Q334.35938 59.55729 334.96875 59.96354Q335.57812 60.36979 335.875 61.11979Q336.1875 61.86979 336.1875 62.760414Q336.1875 63.71354 335.84375 64.479164Q335.51562 65.24479 334.85938 65.65104Q334.20312 66.05729 333.48438 66.05729Q332.95312 66.05729 332.53125 65.83854Q332.10938 65.604164 331.84375 65.27604L331.84375 68.30729L330.79688 68.30729ZM331.75 62.83854Q331.75 64.041664 332.23438 64.61979Q332.71875 65.18229 333.40625 65.18229Q334.10938 65.18229 334.60938 64.58854Q335.10938 63.99479 335.10938 62.74479Q335.10938 61.55729 334.625 60.979164Q334.14062 60.385414 333.45312 60.385414Q332.78125 60.385414 332.26562 61.010414Q331.75 61.635414 331.75 62.83854ZM341.875 65.916664L341.875 64.99479Q341.14062 66.05729 339.89062 66.05729Q339.34375 66.05729 338.85938 65.854164Q338.39062 65.635414 338.15625 65.322914Q337.92188 64.99479 337.82812 64.52604Q337.76562 64.229164 337.76562 63.541664L337.76562 59.697914L338.82812 59.697914L338.82812 63.15104Q338.82812 63.96354 338.89062 64.260414Q338.98438 64.666664 339.29688 64.916664Q339.625 65.15104 340.10938 65.15104Q340.57812 65.15104 340.98438 64.916664Q341.40625 64.666664 341.57812 64.24479Q341.76562 63.822914 341.76562 63.02604L341.76562 59.697914L342.8125 59.697914L342.8125 65.916664L341.875 65.916664ZM344.76562 65.916664L344.76562 57.322914L345.82812 57.322914L345.82812 65.916664L344.76562 65.916664ZM351.85938 65.15104Q351.26562 65.65104 350.71875 65.854164Q350.1875 66.05729 349.5625 66.05729Q348.53125 66.05729 347.98438 65.55729Q347.4375 65.05729 347.4375 64.27604Q347.4375 63.822914 347.64062 63.447914Q347.84375 63.05729 348.1875 62.83854Q348.53125 62.604164 348.95312 62.49479Q349.25 62.40104 349.89062 62.322914Q351.15625 62.18229 351.76562 61.96354Q351.76562 61.74479 351.76562 61.697914Q351.76562 61.041664 351.46875 60.77604Q351.0625 60.43229 350.26562 60.43229Q349.53125 60.43229 349.17188 60.697914Q348.8125 60.947914 348.64062 61.604164L347.60938 61.46354Q347.75 60.80729 348.07812 60.40104Q348.40625 59.99479 349.01562 59.77604Q349.625 59.55729 350.42188 59.55729Q351.21875 59.55729 351.71875 59.74479Q352.21875 59.93229 352.45312 60.21354Q352.6875 60.49479 352.78125 60.93229Q352.82812 61.197914 352.82812 61.90104L352.82812 63.30729Q352.82812 64.77604 352.89062 65.166664Q352.96875 65.55729 353.17188 65.916664L352.0625 65.916664Q351.90625 65.58854 351.85938 65.15104ZM351.76562 62.791664Q351.1875 63.02604 350.04688 63.197914Q349.39062 63.291664 349.125 63.416664Q348.85938 63.52604 348.70312 63.74479Q348.5625 63.96354 348.5625 64.24479Q348.5625 64.666664 348.875 64.947914Q349.20312 65.229164 349.8125 65.229164Q350.42188 65.229164 350.89062 64.96354Q351.375 64.697914 351.59375 64.229164Q351.76562 63.86979 351.76562 63.18229L351.76562 62.791664ZM357.09375 64.979164L357.25 65.90104Q356.79688 65.99479 356.45312 65.99479Q355.875 65.99479 355.5625 65.822914Q355.25 65.635414 355.10938 65.33854Q354.98438 65.041664 354.98438 64.08854L354.98438 60.510414L354.21875 60.510414L354.21875 59.697914L354.98438 59.697914L354.98438 58.15104L356.03125 57.52604L356.03125 59.697914L357.09375 59.697914L357.09375 60.510414L356.03125 60.510414L356.03125 64.15104Q356.03125 64.604164 356.07812 64.729164Q356.14062 64.854164 356.26562 64.93229Q356.39062 65.010414 356.625 65.010414Q356.8125 65.010414 357.09375 64.979164ZM357.79688 58.541664L357.79688 57.322914L358.85938 57.322914L358.85938 58.541664L357.79688 58.541664ZM357.79688 65.916664L357.79688 59.697914L358.85938 59.697914L358.85938 65.916664L357.79688 65.916664ZM360.40625 62.80729Q360.40625 61.072914 361.35938 60.24479Q362.15625 59.55729 363.3125 59.55729Q364.59375 59.55729 365.40625 60.40104Q366.23438 61.229164 366.23438 62.71354Q366.23438 63.916664 365.875 64.604164Q365.51562 65.291664 364.8125 65.68229Q364.125 66.05729 363.3125 66.05729Q362.01562 66.05729 361.20312 65.229164Q360.40625 64.385414 360.40625 62.80729ZM361.48438 62.80729Q361.48438 63.99479 362.0 64.58854Q362.53125 65.18229 363.3125 65.18229Q364.10938 65.18229 364.625 64.58854Q365.14062 63.99479 365.14062 62.77604Q365.14062 61.61979 364.60938 61.02604Q364.09375 60.43229 363.3125 60.43229Q362.53125 60.43229 362.0 61.02604Q361.48438 61.604164 361.48438 62.80729ZM367.79688 65.916664L367.79688 59.697914L368.73438 59.697914L368.73438 60.572914Q369.42188 59.55729 370.71875 59.55729Q371.28125 59.55729 371.75 59.760414Q372.23438 59.96354 372.46875 60.291664Q372.70312 60.61979 372.79688 61.05729Q372.84375 61.354164 372.84375 62.08854L372.84375 65.916664L371.79688 65.916664L371.79688 62.135414Q371.79688 61.479164 371.67188 61.166664Q371.54688 60.854164 371.23438 60.666664Q370.92188 60.46354 370.5 60.46354Q369.82812 60.46354 369.32812 60.90104Q368.84375 61.322914 368.84375 62.510414L368.84375 65.916664L367.79688 65.916664ZM377.92188 65.916664L377.92188 57.322914L380.89062 57.322914Q381.89062 57.322914 382.42188 57.447914Q383.15625 57.61979 383.67188 58.05729Q384.35938 58.635414 384.6875 59.541664Q385.03125 60.43229 385.03125 61.572914Q385.03125 62.55729 384.79688 63.30729Q384.57812 64.05729 384.21875 64.55729Q383.85938 65.05729 383.42188 65.33854Q383.0 65.61979 382.40625 65.77604Q381.8125 65.916664 381.03125 65.916664L377.92188 65.916664ZM379.0625 64.90104L380.89062 64.90104Q381.75 64.90104 382.23438 64.74479Q382.71875 64.58854 383.0 64.291664Q383.40625 63.90104 383.625 63.21354Q383.85938 62.52604 383.85938 61.55729Q383.85938 60.21354 383.40625 59.49479Q382.96875 58.760414 382.34375 58.510414Q381.875 58.33854 380.875 58.33854L379.0625 58.33854L379.0625 64.90104ZM386.79688 58.541664L386.79688 57.322914L387.85938 57.322914L387.85938 58.541664L386.79688 58.541664ZM386.79688 65.916664L386.79688 59.697914L387.85938 59.697914L387.85938 65.916664L386.79688 65.916664ZM389.375 64.05729L390.40625 63.90104Q390.5 64.52604 390.89062 64.854164Q391.29688 65.18229 392.03125 65.18229Q392.75 65.18229 393.09375 64.90104Q393.45312 64.604164 393.45312 64.197914Q393.45312 63.83854 393.14062 63.635414Q392.92188 63.49479 392.0625 63.27604Q390.90625 62.979164 390.45312 62.77604Q390.01562 62.55729 389.78125 62.18229Q389.54688 61.80729 389.54688 61.33854Q389.54688 60.93229 389.73438 60.572914Q389.92188 60.21354 390.25 59.979164Q390.5 59.80729 390.92188 59.68229Q391.34375 59.55729 391.84375 59.55729Q392.5625 59.55729 393.10938 59.77604Q393.67188 59.979164 393.9375 60.33854Q394.20312 60.697914 394.29688 61.291664L393.26562 61.43229Q393.20312 60.96354 392.85938 60.697914Q392.53125 60.416664 391.90625 60.416664Q391.1875 60.416664 390.875 60.666664Q390.5625 60.90104 390.5625 61.229164Q390.5625 61.43229 390.6875 61.58854Q390.82812 61.760414 391.09375 61.86979Q391.25 61.93229 392.03125 62.135414Q393.15625 62.447914 393.59375 62.635414Q394.03125 62.822914 394.28125 63.18229Q394.53125 63.541664 394.53125 64.08854Q394.53125 64.61979 394.21875 65.08854Q393.92188 65.541664 393.34375 65.80729Q392.76562 66.05729 392.03125 66.05729Q390.8125 66.05729 390.17188 65.55729Q389.54688 65.041664 389.375 64.05729ZM396.79688 68.30729L396.79688 59.697914L397.75 59.697914L397.75 60.49479Q398.09375 60.02604 398.51562 59.791664Q398.95312 59.55729 399.5625 59.55729Q400.35938 59.55729 400.96875 59.96354Q401.57812 60.36979 401.875 61.11979Q402.1875 61.86979 402.1875 62.760414Q402.1875 63.71354 401.84375 64.479164Q401.51562 65.24479 400.85938 65.65104Q400.20312 66.05729 399.48438 66.05729Q398.95312 66.05729 398.53125 65.83854Q398.10938 65.604164 397.84375 65.27604L397.84375 68.30729L396.79688 68.30729ZM397.75 62.83854Q397.75 64.041664 398.23438 64.61979Q398.71875 65.18229 399.40625 65.18229Q400.10938 65.18229 400.60938 64.58854Q401.10938 63.99479 401.10938 62.74479Q401.10938 61.55729 400.625 60.979164Q400.14062 60.385414 399.45312 60.385414Q398.78125 60.385414 398.26562 61.010414Q397.75 61.635414 397.75 62.83854ZM403.76562 65.916664L403.76562 57.322914L404.82812 57.322914L404.82812 65.916664L403.76562 65.916664ZM410.85938 65.15104Q410.26562 65.65104 409.71875 65.854164Q409.1875 66.05729 408.5625 66.05729Q407.53125 66.05729 406.98438 65.55729Q406.4375 65.05729 406.4375 64.27604Q406.4375 63.822914 406.64062 63.447914Q406.84375 63.05729 407.1875 62.83854Q407.53125 62.604164 407.95312 62.49479Q408.25 62.40104 408.89062 62.322914Q410.15625 62.18229 410.76562 61.96354Q410.76562 61.74479 410.76562 61.697914Q410.76562 61.041664 410.46875 60.77604Q410.0625 60.43229 409.26562 60.43229Q408.53125 60.43229 408.17188 60.697914Q407.8125 60.947914 407.64062 61.604164L406.60938 61.46354Q406.75 60.80729 407.07812 60.40104Q407.40625 59.99479 408.01562 59.77604Q408.625 59.55729 409.42188 59.55729Q410.21875 59.55729 410.71875 59.74479Q411.21875 59.93229 411.45312 60.21354Q411.6875 60.49479 411.78125 60.93229Q411.82812 61.197914 411.82812 61.90104L411.82812 63.30729Q411.82812 64.77604 411.89062 65.166664Q411.96875 65.55729 412.17188 65.916664L411.0625 65.916664Q410.90625 65.58854 410.85938 65.15104ZM410.76562 62.791664Q410.1875 63.02604 409.04688 63.197914Q408.39062 63.291664 408.125 63.416664Q407.85938 63.52604 407.70312 63.74479Q407.5625 63.96354 407.5625 64.24479Q407.5625 64.666664 407.875 64.947914Q408.20312 65.229164 408.8125 65.229164Q409.42188 65.229164 409.89062 64.96354Q410.375 64.697914 410.59375 64.229164Q410.76562 63.86979 410.76562 63.18229L410.76562 62.791664ZM417.85938 63.635414L418.89062 63.77604Q418.71875 64.83854 418.01562 65.447914Q417.3125 66.05729 416.29688 66.05729Q415.01562 66.05729 414.23438 65.229164Q413.46875 64.385414 413.46875 62.822914Q413.46875 61.822914 413.79688 61.072914Q414.14062 60.30729 414.8125 59.93229Q415.5 59.55729 416.3125 59.55729Q417.3125 59.55729 417.95312 60.072914Q418.60938 60.572914 418.79688 61.52604L417.76562 61.68229Q417.625 61.05729 417.25 60.74479Q416.875 60.416664 416.34375 60.416664Q415.54688 60.416664 415.04688 60.99479Q414.54688 61.55729 414.54688 62.791664Q414.54688 64.05729 415.03125 64.61979Q415.51562 65.18229 416.28125 65.18229Q416.90625 65.18229 417.3125 64.80729Q417.73438 64.43229 417.85938 63.635414ZM424.04688 63.916664L425.14062 64.041664Q424.89062 64.99479 424.1875 65.52604Q423.48438 66.05729 422.40625 66.05729Q421.04688 66.05729 420.23438 65.21354Q419.4375 64.36979 419.4375 62.854164Q419.4375 61.291664 420.25 60.43229Q421.0625 59.55729 422.34375 59.55729Q423.59375 59.55729 424.375 60.40104Q425.17188 61.24479 425.17188 62.791664Q425.17188 62.885414 425.17188 63.072914L420.53125 63.072914Q420.59375 64.104164 421.10938 64.65104Q421.625 65.18229 422.40625 65.18229Q422.98438 65.18229 423.39062 64.885414Q423.8125 64.572914 424.04688 63.916664ZM420.59375 62.21354L424.0625 62.21354Q424.0 61.416664 423.67188 61.02604Q423.15625 60.416664 422.35938 60.416664Q421.625 60.416664 421.125 60.90104Q420.64062 61.385414 420.59375 62.21354ZM430.82812 65.916664L430.82812 65.135414Q430.23438 66.05729 429.09375 66.05729Q428.34375 66.05729 427.71875 65.65104Q427.09375 65.229164 426.75 64.49479Q426.40625 63.760414 426.40625 62.80729Q426.40625 61.885414 426.71875 61.11979Q427.03125 60.354164 427.65625 59.96354Q428.28125 59.55729 429.04688 59.55729Q429.60938 59.55729 430.04688 59.791664Q430.48438 60.02604 430.76562 60.40104L430.76562 57.322914L431.8125 57.322914L431.8125 65.916664L430.82812 65.916664ZM427.5 62.80729Q427.5 64.010414 428.0 64.604164Q428.5 65.18229 429.1875 65.18229Q429.875 65.18229 430.35938 64.61979Q430.84375 64.05729 430.84375 62.90104Q430.84375 61.61979 430.34375 61.02604Q429.85938 60.43229 429.14062 60.43229Q428.4375 60.43229 427.96875 61.010414Q427.5 61.572914 427.5 62.80729ZM438.8125 68.447914Q437.9375 67.33854 437.32812 65.86979Q436.73438 64.385414 436.73438 62.80729Q436.73438 61.416664 437.17188 60.135414Q437.70312 58.65104 438.8125 57.18229L439.5625 57.18229Q438.85938 58.40104 438.625 58.916664Q438.26562 59.729164 438.0625 60.604164Q437.8125 61.697914 437.8125 62.80729Q437.8125 65.635414 439.5625 68.447914L438.8125 68.447914ZM440.70312 59.385414Q440.70312 58.46354 441.15625 57.822914Q441.625 57.18229 442.5 57.18229Q443.3125 57.18229 443.84375 57.760414Q444.375 58.33854 444.375 59.447914Q444.375 60.541664 443.82812 61.135414Q443.29688 61.71354 442.51562 61.71354Q441.73438 61.71354 441.21875 61.135414Q440.70312 60.55729 440.70312 59.385414ZM442.53125 57.90104Q442.14062 57.90104 441.875 58.24479Q441.625 58.58854 441.625 59.49479Q441.625 60.322914 441.875 60.666664Q442.14062 60.99479 442.53125 60.99479Q442.9375 60.99479 443.1875 60.65104Q443.45312 60.30729 443.45312 59.416664Q443.45312 58.572914 443.1875 58.24479Q442.92188 57.90104 442.53125 57.90104ZM442.53125 66.229164L447.23438 57.18229L448.09375 57.18229L443.40625 66.229164L442.53125 66.229164ZM446.25 63.90104Q446.25 62.979164 446.70312 62.33854Q447.17188 61.697914 448.0625 61.697914Q448.875 61.697914 449.40625 62.27604Q449.9375 62.83854 449.9375 63.96354Q449.9375 65.05729 449.39062 65.65104Q448.85938 66.229164 448.0625 66.229164Q447.29688 66.229164 446.76562 65.65104Q446.25 65.072914 446.25 63.90104ZM448.09375 62.416664Q447.6875 62.416664 447.42188 62.760414Q447.17188 63.104164 447.17188 64.010414Q447.17188 64.822914 447.4375 65.166664Q447.70312 65.510414 448.09375 65.510414Q448.48438 65.510414 448.75 65.166664Q449.01562 64.822914 449.01562 63.916664Q449.01562 63.08854 448.75 62.760414Q448.48438 62.416664 448.09375 62.416664ZM452.48438 68.447914L451.73438 68.447914Q453.48438 65.635414 453.48438 62.80729Q453.48438 61.71354 453.23438 60.61979Q453.03125 59.74479 452.67188 58.93229Q452.4375 58.416664 451.73438 57.18229L452.48438 57.18229Q453.57812 58.65104 454.10938 60.135414Q454.5625 61.416664 454.5625 62.80729Q454.5625 64.385414 453.95312 65.86979Q453.34375 67.33854 452.48438 68.447914Z" fill-rule="nonzero"/><path fill="#757575" d="M20.190624 37.55L20.190624 23.2375L29.846874 23.2375L29.846874 24.925L22.08125 24.925L22.08125 29.3625L28.8 29.3625L28.8 31.05L22.08125 31.05L22.08125 37.55L20.190624 37.55ZM31.83125 37.55L31.83125 23.2375L33.58125 23.2375L33.58125 37.55L31.83125 37.55ZM35.221874 32.3625Q35.221874 29.4875 36.815624 28.096874Q38.159374 26.940624 40.08125 26.940624Q42.221874 26.940624 43.565624 28.346874Q44.925 29.753124 44.925 32.221874Q44.925 34.221874 44.33125 35.378124Q43.7375 36.51875 42.58125 37.159374Q41.440624 37.784374 40.08125 37.784374Q37.89375 37.784374 36.55 36.39375Q35.221874 34.9875 35.221874 32.3625ZM37.01875 32.3625Q37.01875 34.3625 37.878124 35.346874Q38.753124 36.33125 40.08125 36.33125Q41.39375 36.33125 42.253124 35.346874Q43.128124 34.346874 43.128124 32.3Q43.128124 30.378124 42.253124 29.39375Q41.378124 28.39375 40.08125 28.39375Q38.753124 28.39375 37.878124 29.39375Q37.01875 30.378124 37.01875 32.3625ZM46.846874 37.55L46.846874 27.175L48.425 27.175L48.425 28.753124Q49.034374 27.64375 49.55 27.3Q50.065624 26.940624 50.675 26.940624Q51.565624 26.940624 52.4875 27.503124L51.878124 29.14375Q51.2375 28.753124 50.596874 28.753124Q50.01875 28.753124 49.55 29.1125Q49.096874 29.45625 48.89375 30.065624Q48.6125 31.003124 48.6125 32.1125L48.6125 37.55L46.846874 37.55ZM53.878124 25.253124L53.878124 23.2375L55.64375 23.2375L55.64375 25.253124L53.878124 25.253124ZM53.878124 37.55L53.878124 27.175L55.64375 27.175L55.64375 37.55L53.878124 37.55ZM64.59688 37.55L64.59688 36.2375Q63.6125 37.784374 61.690624 37.784374Q60.45625 37.784374 59.409374 37.096874Q58.378124 36.409374 57.8 35.190624Q57.2375 33.971874 57.2375 32.378124Q57.2375 30.815624 57.753124 29.55Q58.26875 28.284374 59.3 27.6125Q60.346874 26.940624 61.6125 26.940624Q62.55 26.940624 63.284374 27.346874Q64.01875 27.7375 64.4875 28.3625L64.4875 23.2375L66.22188 23.2375L66.22188 37.55L64.59688 37.55ZM59.034374 32.378124Q59.034374 34.3625 59.878124 35.346874Q60.721874 36.33125 61.8625 36.33125Q63.01875 36.33125 63.815624 35.39375Q64.62813 34.45625 64.62813 32.51875Q64.62813 30.39375 63.8 29.39375Q62.9875 28.39375 61.784374 28.39375Q60.6125 28.39375 59.815624 29.3625Q59.034374 30.315624 59.034374 32.378124ZM75.64375 36.26875Q74.65938 37.096874 73.75313 37.440624Q72.84688 37.784374 71.81563 37.784374Q70.1125 37.784374 69.19063 36.95625Q68.26875 36.1125 68.26875 34.815624Q68.26875 34.05 68.6125 33.425Q68.97188 32.8 69.53438 32.425Q70.09688 32.034374 70.8 31.83125Q71.31563 31.70625 72.3625 31.565624Q74.4875 31.315624 75.4875 30.971874Q75.50313 30.6125 75.50313 30.503124Q75.50313 29.440624 75.00313 28.9875Q74.33125 28.39375 73.00313 28.39375Q71.75313 28.39375 71.15938 28.83125Q70.58125 29.26875 70.3 30.378124L68.58125 30.14375Q68.81563 29.034374 69.34688 28.3625Q69.87813 27.675 70.89375 27.315624Q71.90938 26.940624 73.25313 26.940624Q74.58125 26.940624 75.40938 27.253124Q76.2375 27.565624 76.62813 28.05Q77.01875 28.51875 77.175 29.2375Q77.26875 29.690624 77.26875 30.8625L77.26875 33.20625Q77.26875 35.659374 77.37813 36.315624Q77.4875 36.95625 77.83125 37.55L75.9875 37.55Q75.72188 37.003124 75.64375 36.26875ZM75.4875 32.346874Q74.53438 32.7375 72.6125 33.003124Q71.53438 33.159374 71.08125 33.3625Q70.64375 33.55 70.39375 33.925Q70.14375 34.3 70.14375 34.76875Q70.14375 35.471874 70.675 35.940624Q71.20625 36.409374 72.2375 36.409374Q73.25313 36.409374 74.03438 35.971874Q74.83125 35.51875 75.20625 34.753124Q75.4875 34.14375 75.4875 32.9875L75.4875 32.346874ZM86.09688 37.55L86.09688 23.2375L91.4875 23.2375Q92.925 23.2375 93.675 23.3625Q94.72188 23.55 95.44063 24.05Q96.15938 24.534374 96.58125 25.425Q97.01875 26.315624 97.01875 27.378124Q97.01875 29.20625 95.84688 30.471874Q94.69063 31.721874 91.65938 31.721874L87.9875 31.721874L87.9875 37.55L86.09688 37.55ZM87.9875 30.034374L91.69063 30.034374Q93.51875 30.034374 94.28438 29.3625Q95.06563 28.675 95.06563 27.425Q95.06563 26.534374 94.6125 25.89375Q94.15938 25.253124 93.425 25.05Q92.94063 24.925 91.64375 24.925L87.9875 24.925L87.9875 30.034374ZM98.22188 32.3625Q98.22188 29.4875 99.81563 28.096874Q101.15938 26.940624 103.08125 26.940624Q105.22188 26.940624 106.56563 28.346874Q107.925 29.753124 107.925 32.221874Q107.925 34.221874 107.33125 35.378124Q106.7375 36.51875 105.58125 37.159374Q104.44063 37.784374 103.08125 37.784374Q100.89375 37.784374 99.55 36.39375Q98.22188 34.9875 98.22188 32.3625ZM100.01875 32.3625Q100.01875 34.3625 100.87813 35.346874Q101.75313 36.33125 103.08125 36.33125Q104.39375 36.33125 105.25313 35.346874Q106.12813 34.346874 106.12813 32.3Q106.12813 30.378124 105.25313 29.39375Q104.37813 28.39375 103.08125 28.39375Q101.75313 28.39375 100.87813 29.39375Q100.01875 30.378124 100.01875 32.3625ZM109.8625 41.51875L109.8625 27.175L111.47188 27.175L111.47188 28.51875Q112.03438 27.7375 112.7375 27.346874Q113.45625 26.940624 114.47188 26.940624Q115.8 26.940624 116.81563 27.628124Q117.83125 28.315624 118.34688 29.565624Q118.87813 30.8 118.87813 32.284374Q118.87813 33.878124 118.3 35.159374Q117.7375 36.425 116.64375 37.1125Q115.55 37.784374 114.34688 37.784374Q113.47188 37.784374 112.76875 37.409374Q112.08125 37.034374 111.62813 36.471874L111.62813 41.51875L109.8625 41.51875ZM111.45625 32.425Q111.45625 34.425 112.26875 35.378124Q113.08125 36.33125 114.2375 36.33125Q115.40938 36.33125 116.2375 35.346874Q117.08125 34.3625 117.08125 32.26875Q117.08125 30.3 116.25313 29.315624Q115.44063 28.315624 114.31563 28.315624Q113.19063 28.315624 112.31563 29.378124Q111.45625 30.425 111.45625 32.425ZM127.65938 37.55L127.65938 36.01875Q126.45625 37.784374 124.37813 37.784374Q123.45625 37.784374 122.65938 37.440624Q121.8625 37.08125 121.47188 36.55Q121.09688 36.01875 120.94063 35.2375Q120.83125 34.721874 120.83125 33.596874L120.83125 27.175L122.58125 27.175L122.58125 32.925Q122.58125 34.3 122.69063 34.784374Q122.8625 35.471874 123.39375 35.878124Q123.94063 36.26875 124.72188 36.26875Q125.51875 36.26875 126.20625 35.8625Q126.90938 35.45625 127.19063 34.76875Q127.4875 34.065624 127.4875 32.7375L127.4875 27.175L129.2375 27.175L129.2375 37.55L127.65938 37.55ZM130.83125 37.55L130.83125 23.2375L132.58125 23.2375L132.58125 37.55L130.83125 37.55ZM141.64375 36.26875Q140.65938 37.096874 139.75313 37.440624Q138.84688 37.784374 137.81563 37.784374Q136.1125 37.784374 135.19063 36.95625Q134.26875 36.1125 134.26875 34.815624Q134.26875 34.05 134.6125 33.425Q134.97188 32.8 135.53438 32.425Q136.09688 32.034374 136.8 31.83125Q137.31563 31.70625 138.3625 31.565624Q140.4875 31.315624 141.4875 30.971874Q141.50313 30.6125 141.50313 30.503124Q141.50313 29.440624 141.00313 28.9875Q140.33125 28.39375 139.00313 28.39375Q137.75313 28.39375 137.15938 28.83125Q136.58125 29.26875 136.3 30.378124L134.58125 30.14375Q134.81563 29.034374 135.34688 28.3625Q135.87813 27.675 136.89375 27.315624Q137.90938 26.940624 139.25313 26.940624Q140.58125 26.940624 141.40938 27.253124Q142.2375 27.565624 142.62813 28.05Q143.01875 28.51875 143.175 29.2375Q143.26875 29.690624 143.26875 30.8625L143.26875 33.20625Q143.26875 35.659374 143.37813 36.315624Q143.4875 36.95625 143.83125 37.55L141.9875 37.55Q141.72188 37.003124 141.64375 36.26875ZM141.4875 32.346874Q140.53438 32.7375 138.6125 33.003124Q137.53438 33.159374 137.08125 33.3625Q136.64375 33.55 136.39375 33.925Q136.14375 34.3 136.14375 34.76875Q136.14375 35.471874 136.675 35.940624Q137.20625 36.409374 138.2375 36.409374Q139.25313 36.409374 140.03438 35.971874Q140.83125 35.51875 141.20625 34.753124Q141.4875 34.14375 141.4875 32.9875L141.4875 32.346874ZM149.70625 35.971874L149.95625 37.534374Q149.22188 37.690624 148.62813 37.690624Q147.675 37.690624 147.14375 37.39375Q146.62813 37.08125 146.40938 36.596874Q146.19063 36.096874 146.19063 34.51875L146.19063 28.55L144.90938 28.55L144.90938 27.175L146.19063 27.175L146.19063 24.6125L147.94063 23.55L147.94063 27.175L149.70625 27.175L149.70625 28.55L147.94063 28.55L147.94063 34.6125Q147.94063 35.3625 148.03438 35.58125Q148.12813 35.784374 148.33125 35.925Q148.55 36.05 148.94063 36.05Q149.22188 36.05 149.70625 35.971874ZM151.87813 25.253124L151.87813 23.2375L153.64375 23.2375L153.64375 25.253124L151.87813 25.253124ZM151.87813 37.55L151.87813 27.175L153.64375 27.175L153.64375 37.55L151.87813 37.55ZM155.22188 32.3625Q155.22188 29.4875 156.81563 28.096874Q158.15938 26.940624 160.08125 26.940624Q162.22188 26.940624 163.56563 28.346874Q164.925 29.753124 164.925 32.221874Q164.925 34.221874 164.33125 35.378124Q163.7375 36.51875 162.58125 37.159374Q161.44063 37.784374 160.08125 37.784374Q157.89375 37.784374 156.55 36.39375Q155.22188 34.9875 155.22188 32.3625ZM157.01875 32.3625Q157.01875 34.3625 157.87813 35.346874Q158.75313 36.33125 160.08125 36.33125Q161.39375 36.33125 162.25313 35.346874Q163.12813 34.346874 163.12813 32.3Q163.12813 30.378124 162.25313 29.39375Q161.37813 28.39375 160.08125 28.39375Q158.75313 28.39375 157.87813 29.39375Q157.01875 30.378124 157.01875 32.3625ZM166.8625 37.55L166.8625 27.175L168.45625 27.175L168.45625 28.659374Q169.59688 26.940624 171.75313 26.940624Q172.69063 26.940624 173.47188 27.284374Q174.26875 27.6125 174.65938 28.159374Q175.05 28.70625 175.20625 29.45625Q175.3 29.95625 175.3 31.175L175.3 37.55L173.53438 37.55L173.53438 31.2375Q173.53438 30.159374 173.33125 29.628124Q173.12813 29.096874 172.59688 28.784374Q172.08125 28.471874 171.37813 28.471874Q170.25313 28.471874 169.44063 29.190624Q168.62813 29.89375 168.62813 31.878124L168.62813 37.55L166.8625 37.55ZM183.09688 37.55L183.09688 23.2375L188.01875 23.2375Q189.69063 23.2375 190.58125 23.440624Q191.8 23.721874 192.675 24.45625Q193.8 25.425 194.3625 26.909374Q194.925 28.39375 194.925 30.315624Q194.925 31.940624 194.55 33.20625Q194.175 34.45625 193.56563 35.284374Q192.97188 36.1125 192.26875 36.596874Q191.56563 37.065624 190.56563 37.315624Q189.56563 37.55 188.25313 37.55L183.09688 37.55ZM184.9875 35.8625L188.05 35.8625Q189.45625 35.8625 190.25313 35.596874Q191.06563 35.33125 191.55 34.846874Q192.22188 34.175 192.59688 33.05Q192.97188 31.909374 192.97188 30.284374Q192.97188 28.034374 192.2375 26.83125Q191.50313 25.628124 190.44063 25.221874Q189.69063 24.925 188.00313 24.925L184.9875 24.925L184.9875 35.8625ZM196.87813 25.253124L196.87813 23.2375L198.64375 23.2375L198.64375 25.253124L196.87813 25.253124ZM196.87813 37.55L196.87813 27.175L198.64375 27.175L198.64375 37.55L196.87813 37.55ZM200.15938 34.45625L201.90938 34.175Q202.05 35.221874 202.72188 35.784374Q203.39375 36.33125 204.59688 36.33125Q205.8 36.33125 206.37813 35.846874Q206.97188 35.346874 206.97188 34.690624Q206.97188 34.096874 206.45625 33.753124Q206.09688 33.51875 204.65938 33.159374Q202.72188 32.659374 201.97188 32.315624Q201.2375 31.95625 200.84688 31.33125Q200.45625 30.690624 200.45625 29.925Q200.45625 29.2375 200.76875 28.64375Q201.09688 28.05 201.64375 27.659374Q202.05 27.3625 202.75313 27.159374Q203.47188 26.940624 204.28438 26.940624Q205.50313 26.940624 206.425 27.3Q207.34688 27.64375 207.78438 28.253124Q208.22188 28.846874 208.39375 29.846874L206.675 30.08125Q206.55 29.284374 205.9875 28.846874Q205.425 28.39375 204.40938 28.39375Q203.19063 28.39375 202.675 28.8Q202.15938 29.190624 202.15938 29.721874Q202.15938 30.065624 202.37813 30.346874Q202.58125 30.628124 203.05 30.815624Q203.31563 30.909374 204.59688 31.253124Q206.47188 31.753124 207.20625 32.08125Q207.94063 32.39375 208.3625 33.003124Q208.78438 33.596874 208.78438 34.503124Q208.78438 35.378124 208.26875 36.159374Q207.75313 36.940624 206.78438 37.3625Q205.81563 37.784374 204.59688 37.784374Q202.58125 37.784374 201.51875 36.940624Q200.45625 36.096874 200.15938 34.45625ZM210.8625 41.51875L210.8625 27.175L212.47188 27.175L212.47188 28.51875Q213.03438 27.7375 213.7375 27.346874Q214.45625 26.940624 215.47188 26.940624Q216.8 26.940624 217.81563 27.628124Q218.83125 28.315624 219.34688 29.565624Q219.87813 30.8 219.87813 32.284374Q219.87813 33.878124 219.3 35.159374Q218.7375 36.425 217.64375 37.1125Q216.55 37.784374 215.34688 37.784374Q214.47188 37.784374 213.76875 37.409374Q213.08125 37.034374 212.62813 36.471874L212.62813 41.51875L210.8625 41.51875ZM212.45625 32.425Q212.45625 34.425 213.26875 35.378124Q214.08125 36.33125 215.2375 36.33125Q216.40938 36.33125 217.2375 35.346874Q218.08125 34.3625 218.08125 32.26875Q218.08125 30.3 217.25313 29.315624Q216.44063 28.315624 215.31563 28.315624Q214.19063 28.315624 213.31563 29.378124Q212.45625 30.425 212.45625 32.425ZM221.83125 37.55L221.83125 23.2375L223.58125 23.2375L223.58125 37.55L221.83125 37.55ZM232.64375 36.26875Q231.65938 37.096874 230.75313 37.440624Q229.84688 37.784374 228.81563 37.784374Q227.1125 37.784374 226.19063 36.95625Q225.26875 36.1125 225.26875 34.815624Q225.26875 34.05 225.6125 33.425Q225.97188 32.8 226.53438 32.425Q227.09688 32.034374 227.8 31.83125Q228.31563 31.70625 229.3625 31.565624Q231.4875 31.315624 232.4875 30.971874Q232.50313 30.6125 232.50313 30.503124Q232.50313 29.440624 232.00313 28.9875Q231.33125 28.39375 230.00313 28.39375Q228.75313 28.39375 228.15938 28.83125Q227.58125 29.26875 227.3 30.378124L225.58125 30.14375Q225.81563 29.034374 226.34688 28.3625Q226.87813 27.675 227.89375 27.315624Q228.90938 26.940624 230.25313 26.940624Q231.58125 26.940624 232.40938 27.253124Q233.2375 27.565624 233.62813 28.05Q234.01875 28.51875 234.175 29.2375Q234.26875 29.690624 234.26875 30.8625L234.26875 33.20625Q234.26875 35.659374 234.37813 36.315624Q234.4875 36.95625 234.83125 37.55L232.9875 37.55Q232.72188 37.003124 232.64375 36.26875ZM232.4875 32.346874Q231.53438 32.7375 229.6125 33.003124Q228.53438 33.159374 228.08125 33.3625Q227.64375 33.55 227.39375 33.925Q227.14375 34.3 227.14375 34.76875Q227.14375 35.471874 227.675 35.940624Q228.20625 36.409374 229.2375 36.409374Q230.25313 36.409374 231.03438 35.971874Q231.83125 35.51875 232.20625 34.753124Q232.4875 34.14375 232.4875 32.9875L232.4875 32.346874ZM243.64375 33.753124L245.3625 33.971874Q245.08125 35.76875 243.90938 36.784374Q242.75313 37.784374 241.05 37.784374Q238.925 37.784374 237.62813 36.39375Q236.33125 35.003124 236.33125 32.409374Q236.33125 30.721874 236.87813 29.471874Q237.44063 28.20625 238.58125 27.58125Q239.72188 26.940624 241.06563 26.940624Q242.75313 26.940624 243.81563 27.8Q244.89375 28.659374 245.20625 30.221874L243.4875 30.4875Q243.25313 29.440624 242.62813 28.925Q242.00313 28.39375 241.12813 28.39375Q239.8 28.39375 238.97188 29.346874Q238.14375 30.3 238.14375 32.346874Q238.14375 34.440624 238.94063 35.39375Q239.7375 36.33125 241.03438 36.33125Q242.06563 36.33125 242.75313 35.70625Q243.45625 35.065624 243.64375 33.753124ZM253.97188 34.20625L255.78438 34.440624Q255.3625 36.01875 254.19063 36.909374Q253.03438 37.784374 251.22188 37.784374Q248.95625 37.784374 247.6125 36.39375Q246.28438 34.9875 246.28438 32.45625Q246.28438 29.83125 247.62813 28.39375Q248.97188 26.940624 251.12813 26.940624Q253.20625 26.940624 254.51875 28.3625Q255.84688 29.76875 255.84688 32.346874Q255.84688 32.503124 255.83125 32.815624L248.09688 32.815624Q248.19063 34.51875 249.06563 35.425Q249.94063 36.33125 251.2375 36.33125Q252.20625 36.33125 252.87813 35.83125Q253.56563 35.315624 253.97188 34.20625ZM248.19063 31.3625L253.9875 31.3625Q253.87813 30.065624 253.33125 29.409374Q252.4875 28.39375 251.14375 28.39375Q249.94063 28.39375 249.1125 29.20625Q248.28438 30.003124 248.19063 31.3625ZM257.8625 37.55L257.8625 27.175L259.4406 27.175L259.4406 28.628124Q259.925 27.878124 260.7375 27.409374Q261.55 26.940624 262.58124 26.940624Q263.7375 26.940624 264.47186 27.425Q265.20624 27.89375 265.51874 28.753124Q266.7531 26.940624 268.72186 26.940624Q270.26874 26.940624 271.09686 27.8Q271.925 28.659374 271.925 30.425L271.925 37.55L270.175 37.55L270.175 31.01875Q270.175 29.95625 270.0031 29.503124Q269.83124 29.034374 269.3781 28.753124Q268.9406 28.471874 268.33124 28.471874Q267.2375 28.471874 266.5031 29.20625Q265.78436 29.925 265.78436 31.51875L265.78436 37.55L264.03436 37.55L264.03436 30.815624Q264.03436 29.64375 263.59686 29.065624Q263.175 28.471874 262.1906 28.471874Q261.45624 28.471874 260.8156 28.8625Q260.1906 29.253124 259.90936 30.003124Q259.6281 30.753124 259.6281 32.175L259.6281 37.55L257.8625 37.55ZM280.97186 34.20625L282.78436 34.440624Q282.3625 36.01875 281.1906 36.909374Q280.03436 37.784374 278.22186 37.784374Q275.95624 37.784374 274.6125 36.39375Q273.28436 34.9875 273.28436 32.45625Q273.28436 29.83125 274.6281 28.39375Q275.97186 26.940624 278.1281 26.940624Q280.20624 26.940624 281.51874 28.3625Q282.84686 29.76875 282.84686 32.346874Q282.84686 32.503124 282.83124 32.815624L275.09686 32.815624Q275.1906 34.51875 276.0656 35.425Q276.9406 36.33125 278.2375 36.33125Q279.20624 36.33125 279.8781 35.83125Q280.5656 35.315624 280.97186 34.20625ZM275.1906 31.3625L280.9875 31.3625Q280.8781 30.065624 280.33124 29.409374Q279.4875 28.39375 278.14374 28.39375Q276.9406 28.39375 276.1125 29.20625Q275.28436 30.003124 275.1906 31.3625ZM284.8625 37.55L284.8625 27.175L286.45624 27.175L286.45624 28.659374Q287.59686 26.940624 289.7531 26.940624Q290.6906 26.940624 291.47186 27.284374Q292.26874 27.6125 292.65936 28.159374Q293.05 28.70625 293.20624 29.45625Q293.3 29.95625 293.3 31.175L293.3 37.55L291.53436 37.55L291.53436 31.2375Q291.53436 30.159374 291.33124 29.628124Q291.1281 29.096874 290.59686 28.784374Q290.08124 28.471874 289.3781 28.471874Q288.2531 28.471874 287.4406 29.190624Q286.6281 29.89375 286.6281 31.878124L286.6281 37.55L284.8625 37.55ZM298.70624 35.971874L298.95624 37.534374Q298.22186 37.690624 297.6281 37.690624Q296.675 37.690624 296.14374 37.39375Q295.6281 37.08125 295.40936 36.596874Q295.1906 36.096874 295.1906 34.51875L295.1906 28.55L293.90936 28.55L293.90936 27.175L295.1906 27.175L295.1906 24.6125L296.9406 23.55L296.9406 27.175L298.70624 27.175L298.70624 28.55L296.9406 28.55L296.9406 34.6125Q296.9406 35.3625 297.03436 35.58125Q297.1281 35.784374 297.33124 35.925Q297.55 36.05 297.9406 36.05Q298.22186 36.05 298.70624 35.971874ZM307.28436 37.55L307.28436 28.55L305.7375 28.55L305.7375 27.175L307.28436 27.175L307.28436 26.08125Q307.28436 25.034374 307.47186 24.51875Q307.72186 23.83125 308.3625 23.409374Q309.0031 22.9875 310.15936 22.9875Q310.90936 22.9875 311.8 23.159374L311.53436 24.690624Q310.9875 24.596874 310.5031 24.596874Q309.70624 24.596874 309.3625 24.940624Q309.03436 25.284374 309.03436 26.221874L309.03436 27.175L311.0656 27.175L311.0656 28.55L309.03436 28.55L309.03436 37.55L307.28436 37.55ZM312.84686 37.55L312.84686 27.175L314.425 27.175L314.425 28.753124Q315.03436 27.64375 315.55 27.3Q316.0656 26.940624 316.675 26.940624Q317.5656 26.940624 318.4875 27.503124L317.8781 29.14375Q317.2375 28.753124 316.59686 28.753124Q316.01874 28.753124 315.55 29.1125Q315.09686 29.45625 314.89374 30.065624Q314.6125 31.003124 314.6125 32.1125L314.6125 37.55L312.84686 37.55ZM319.22186 32.3625Q319.22186 29.4875 320.8156 28.096874Q322.15936 26.940624 324.08124 26.940624Q326.22186 26.940624 327.5656 28.346874Q328.925 29.753124 328.925 32.221874Q328.925 34.221874 328.33124 35.378124Q327.7375 36.51875 326.58124 37.159374Q325.4406 37.784374 324.08124 37.784374Q321.89374 37.784374 320.55 36.39375Q319.22186 34.9875 319.22186 32.3625ZM321.01874 32.3625Q321.01874 34.3625 321.8781 35.346874Q322.7531 36.33125 324.08124 36.33125Q325.39374 36.33125 326.2531 35.346874Q327.1281 34.346874 327.1281 32.3Q327.1281 30.378124 326.2531 29.39375Q325.3781 28.39375 324.08124 28.39375Q322.7531 28.39375 321.8781 29.39375Q321.01874 30.378124 321.01874 32.3625ZM330.8625 37.55L330.8625 27.175L332.4406 27.175L332.4406 28.628124Q332.925 27.878124 333.7375 27.409374Q334.55 26.940624 335.58124 26.940624Q336.7375 26.940624 337.47186 27.425Q338.20624 27.89375 338.51874 28.753124Q339.7531 26.940624 341.72186 26.940624Q343.26874 26.940624 344.09686 27.8Q344.925 28.659374 344.925 30.425L344.925 37.55L343.175 37.55L343.175 31.01875Q343.175 29.95625 343.0031 29.503124Q342.83124 29.034374 342.3781 28.753124Q341.9406 28.471874 341.33124 28.471874Q340.2375 28.471874 339.5031 29.20625Q338.78436 29.925 338.78436 31.51875L338.78436 37.55L337.03436 37.55L337.03436 30.815624Q337.03436 29.64375 336.59686 29.065624Q336.175 28.471874 335.1906 28.471874Q334.45624 28.471874 333.8156 28.8625Q333.1906 29.253124 332.90936 30.003124Q332.6281 30.753124 332.6281 32.175L332.6281 37.55L330.8625 37.55ZM352.45624 32.95625L354.2375 32.8Q354.3625 33.8625 354.8156 34.55Q355.28436 35.2375 356.2531 35.675Q357.2375 36.096874 358.47186 36.096874Q359.55 36.096874 360.3781 35.784374Q361.20624 35.45625 361.6125 34.89375Q362.01874 34.33125 362.01874 33.659374Q362.01874 32.9875 361.6281 32.4875Q361.2375 31.9875 360.34686 31.64375Q359.76874 31.409374 357.78436 30.940624Q355.8156 30.471874 355.03436 30.05Q354.0031 29.51875 353.5031 28.721874Q353.0031 27.925 353.0031 26.940624Q353.0031 25.846874 353.6125 24.909374Q354.22186 23.971874 355.40936 23.4875Q356.59686 22.9875 358.03436 22.9875Q359.6281 22.9875 360.84686 23.503124Q362.0656 24.01875 362.70624 25.01875Q363.3625 26.003124 363.40936 27.26875L361.59686 27.409374Q361.45624 26.05 360.6125 25.3625Q359.76874 24.659374 358.1125 24.659374Q356.39374 24.659374 355.59686 25.3Q354.8156 25.925 354.8156 26.8Q354.8156 27.58125 355.3781 28.08125Q355.925 28.58125 358.2375 29.096874Q360.55 29.6125 361.40936 30.003124Q362.65936 30.58125 363.2531 31.471874Q363.84686 32.346874 363.84686 33.503124Q363.84686 34.64375 363.1906 35.659374Q362.53436 36.675 361.3 37.2375Q360.08124 37.8 358.55 37.8Q356.6125 37.8 355.3 37.2375Q353.9875 36.659374 353.2375 35.51875Q352.4875 34.378124 352.45624 32.95625ZM372.97186 34.20625L374.78436 34.440624Q374.3625 36.01875 373.1906 36.909374Q372.03436 37.784374 370.22186 37.784374Q367.95624 37.784374 366.6125 36.39375Q365.28436 34.9875 365.28436 32.45625Q365.28436 29.83125 366.6281 28.39375Q367.97186 26.940624 370.1281 26.940624Q372.20624 26.940624 373.51874 28.3625Q374.84686 29.76875 374.84686 32.346874Q374.84686 32.503124 374.83124 32.815624L367.09686 32.815624Q367.1906 34.51875 368.0656 35.425Q368.9406 36.33125 370.2375 36.33125Q371.20624 36.33125 371.8781 35.83125Q372.5656 35.315624 372.97186 34.20625ZM367.1906 31.3625L372.9875 31.3625Q372.8781 30.065624 372.33124 29.409374Q371.4875 28.39375 370.14374 28.39375Q368.9406 28.39375 368.1125 29.20625Q367.28436 30.003124 367.1906 31.3625ZM383.64374 36.26875Q382.65936 37.096874 381.7531 37.440624Q380.84686 37.784374 379.8156 37.784374Q378.1125 37.784374 377.1906 36.95625Q376.26874 36.1125 376.26874 34.815624Q376.26874 34.05 376.6125 33.425Q376.97186 32.8 377.53436 32.425Q378.09686 32.034374 378.8 31.83125Q379.3156 31.70625 380.3625 31.565624Q382.4875 31.315624 383.4875 30.971874Q383.5031 30.6125 383.5031 30.503124Q383.5031 29.440624 383.0031 28.9875Q382.33124 28.39375 381.0031 28.39375Q379.7531 28.39375 379.15936 28.83125Q378.58124 29.26875 378.3 30.378124L376.58124 30.14375Q376.8156 29.034374 377.34686 28.3625Q377.8781 27.675 378.89374 27.315624Q379.90936 26.940624 381.2531 26.940624Q382.58124 26.940624 383.40936 27.253124Q384.2375 27.565624 384.6281 28.05Q385.01874 28.51875 385.175 29.2375Q385.26874 29.690624 385.26874 30.8625L385.26874 33.20625Q385.26874 35.659374 385.3781 36.315624Q385.4875 36.95625 385.83124 37.55L383.9875 37.55Q383.72186 37.003124 383.64374 36.26875ZM383.4875 32.346874Q382.53436 32.7375 380.6125 33.003124Q379.53436 33.159374 379.08124 33.3625Q378.64374 33.55 378.39374 33.925Q378.14374 34.3 378.14374 34.76875Q378.14374 35.471874 378.675 35.940624Q379.20624 36.409374 380.2375 36.409374Q381.2531 36.409374 382.03436 35.971874Q382.83124 35.51875 383.20624 34.753124Q383.4875 34.14375 383.4875 32.9875L383.4875 32.346874ZM394.01874 37.55L394.01874 23.2375L395.90936 23.2375L395.90936 35.8625L402.95624 35.8625L402.95624 37.55L394.01874 37.55ZM411.97186 34.20625L413.78436 34.440624Q413.3625 36.01875 412.1906 36.909374Q411.03436 37.784374 409.22186 37.784374Q406.95624 37.784374 405.6125 36.39375Q404.28436 34.9875 404.28436 32.45625Q404.28436 29.83125 405.6281 28.39375Q406.97186 26.940624 409.1281 26.940624Q411.20624 26.940624 412.51874 28.3625Q413.84686 29.76875 413.84686 32.346874Q413.84686 32.503124 413.83124 32.815624L406.09686 32.815624Q406.1906 34.51875 407.0656 35.425Q407.9406 36.33125 409.2375 36.33125Q410.20624 36.33125 410.8781 35.83125Q411.5656 35.315624 411.97186 34.20625ZM406.1906 31.3625L411.9875 31.3625Q411.8781 30.065624 411.33124 29.409374Q410.4875 28.39375 409.14374 28.39375Q407.9406 28.39375 407.1125 29.20625Q406.28436 30.003124 406.1906 31.3625ZM418.7531 37.55L414.8 27.175L416.65936 27.175L418.89374 33.39375Q419.2531 34.39375 419.55 35.471874Q419.78436 34.659374 420.20624 33.503124L422.5031 27.175L424.3156 27.175L420.39374 37.55L418.7531 37.55ZM431.97186 34.20625L433.78436 34.440624Q433.3625 36.01875 432.1906 36.909374Q431.03436 37.784374 429.22186 37.784374Q426.95624 37.784374 425.6125 36.39375Q424.28436 34.9875 424.28436 32.45625Q424.28436 29.83125 425.6281 28.39375Q426.97186 26.940624 429.1281 26.940624Q431.20624 26.940624 432.51874 28.3625Q433.84686 29.76875 433.84686 32.346874Q433.84686 32.503124 433.83124 32.815624L426.09686 32.815624Q426.1906 34.51875 427.0656 35.425Q427.9406 36.33125 429.2375 36.33125Q430.20624 36.33125 430.8781 35.83125Q431.5656 35.315624 431.97186 34.20625ZM426.1906 31.3625L431.9875 31.3625Q431.8781 30.065624 431.33124 29.409374Q430.4875 28.39375 429.14374 28.39375Q427.9406 28.39375 427.1125 29.20625Q426.28436 30.003124 426.1906 31.3625ZM435.83124 37.55L435.83124 23.2375L437.58124 23.2375L437.58124 37.55L435.83124 37.55ZM446.1281 37.55L446.1281 23.2375L452.47186 23.2375Q454.3781 23.2375 455.3781 23.628124Q456.3781 24.003124 456.97186 24.9875Q457.5656 25.95625 457.5656 27.14375Q457.5656 28.659374 456.58124 29.70625Q455.59686 30.753124 453.53436 31.034374Q454.28436 31.39375 454.675 31.753124Q455.5031 32.503124 456.2531 33.659374L458.7375 37.55L456.3625 37.55L454.45624 34.565624Q453.6281 33.284374 453.09686 32.596874Q452.5656 31.909374 452.1281 31.64375Q451.70624 31.3625 451.26874 31.253124Q450.9406 31.190624 450.22186 31.190624L448.01874 31.190624L448.01874 37.55L446.1281 37.55ZM448.01874 29.55L452.09686 29.55Q453.39374 29.55 454.1125 29.284374Q454.84686 29.01875 455.22186 28.425Q455.6125 27.83125 455.6125 27.14375Q455.6125 26.128124 454.8781 25.471874Q454.14374 24.815624 452.55 24.815624L448.01874 24.815624L448.01874 29.55ZM459.8781 25.253124L459.8781 23.2375L461.64374 23.2375L461.64374 25.253124L459.8781 25.253124ZM459.8781 37.55L459.8781 27.175L461.64374 27.175L461.64374 37.55L459.8781 37.55ZM463.15936 34.45625L464.90936 34.175Q465.05 35.221874 465.72186 35.784374Q466.39374 36.33125 467.59686 36.33125Q468.8 36.33125 469.3781 35.846874Q469.97186 35.346874 469.97186 34.690624Q469.97186 34.096874 469.45624 33.753124Q469.09686 33.51875 467.65936 33.159374Q465.72186 32.659374 464.97186 32.315624Q464.2375 31.95625 463.84686 31.33125Q463.45624 30.690624 463.45624 29.925Q463.45624 29.2375 463.76874 28.64375Q464.09686 28.05 464.64374 27.659374Q465.05 27.3625 465.7531 27.159374Q466.47186 26.940624 467.28436 26.940624Q468.5031 26.940624 469.425 27.3Q470.34686 27.64375 470.78436 28.253124Q471.22186 28.846874 471.39374 29.846874L469.675 30.08125Q469.55 29.284374 468.9875 28.846874Q468.425 28.39375 467.40936 28.39375Q466.1906 28.39375 465.675 28.8Q465.15936 29.190624 465.15936 29.721874Q465.15936 30.065624 465.3781 30.346874Q465.58124 30.628124 466.05 30.815624Q466.3156 30.909374 467.59686 31.253124Q469.47186 31.753124 470.20624 32.08125Q470.9406 32.39375 471.3625 33.003124Q471.78436 33.596874 471.78436 34.503124Q471.78436 35.378124 471.26874 36.159374Q470.7531 36.940624 469.78436 37.3625Q468.8156 37.784374 467.59686 37.784374Q465.58124 37.784374 464.51874 36.940624Q463.45624 36.096874 463.15936 34.45625ZM480.97186 34.20625L482.78436 34.440624Q482.3625 36.01875 481.1906 36.909374Q480.03436 37.784374 478.22186 37.784374Q475.95624 37.784374 474.6125 36.39375Q473.28436 34.9875 473.28436 32.45625Q473.28436 29.83125 474.6281 28.39375Q475.97186 26.940624 478.1281 26.940624Q480.20624 26.940624 481.51874 28.3625Q482.84686 29.76875 482.84686 32.346874Q482.84686 32.503124 482.83124 32.815624L475.09686 32.815624Q475.1906 34.51875 476.0656 35.425Q476.9406 36.33125 478.2375 36.33125Q479.20624 36.33125 479.8781 35.83125Q480.5656 35.315624 480.97186 34.20625ZM475.1906 31.3625L480.9875 31.3625Q480.8781 30.065624 480.33124 29.409374Q479.4875 28.39375 478.14374 28.39375Q476.9406 28.39375 476.1125 29.20625Q475.28436 30.003124 475.1906 31.3625Z" fill-rule="nonzero"/></svg>